<svg width="571" height="419" xmlns="http://www.w3.org/2000/svg" xmlns:xlink="http://www.w3.org/1999/xlink"><defs><linearGradient x1="5.132%" y1="71.237%" x2="100%" y2="71.237%" id="a"><stop stop-color="#0046BA" offset="0%"/><stop stop-color="#005FFF" offset="100%"/></linearGradient><linearGradient x1="50%" y1="0%" x2="79.082%" y2="100%" id="h"><stop stop-color="#FFD3A5" offset="0%"/><stop stop-color="#FD6585" offset="100%"/></linearGradient><linearGradient x1="35.096%" y1="7.598%" x2="64.904%" y2="92.402%" id="i"><stop stop-color="#57CEF2" offset="0%"/><stop stop-color="#3D5FFF" offset="100%"/></linearGradient><linearGradient x1="26.919%" y1="7.598%" x2="73.081%" y2="92.402%" id="j"><stop stop-color="#57CEF2" offset="0%"/><stop stop-color="#3D5FFF" offset="100%"/></linearGradient><linearGradient x1="23.504%" y1="7.598%" x2="76.496%" y2="92.402%" id="k"><stop stop-color="#57CEF2" offset="0%"/><stop stop-color="#3D5FFF" offset="100%"/></linearGradient><linearGradient x1="66.858%" y1="58.307%" x2="27.902%" y2="4.221%" id="l"><stop stop-color="#3CC2FF" stop-opacity="0" offset="0%"/><stop stop-color="#3D69FF" offset="100%"/></linearGradient><linearGradient x1="50%" y1="0%" x2="50%" y2="100%" id="n"><stop stop-color="#006BF0" offset="0%"/><stop stop-color="#0039DD" offset="100%"/></linearGradient><linearGradient x1="50%" y1="0%" x2="50%" y2="100%" id="o"><stop stop-color="#3C7AFF" offset="0%"/><stop stop-color="#3D5FFF" offset="100%"/></linearGradient><linearGradient x1="50%" y1="0%" x2="50%" y2="100%" id="p"><stop stop-color="#57CEF2" offset="0%"/><stop stop-color="#3D5FFF" offset="100%"/></linearGradient><linearGradient x1="50%" y1="-10.072%" x2="50%" y2="100%" id="q"><stop stop-color="#A0EEB5" offset="0%"/><stop stop-color="#31CDEE" offset="100%"/></linearGradient><linearGradient x1="50%" y1="-2131.896%" x2="50%" y2="100%" id="r"><stop stop-color="#A0EEB5" offset="0%"/><stop stop-color="#0084A0" offset="100%"/></linearGradient><linearGradient x1="38.31%" y1="35.405%" x2="50%" y2="50.87%" id="s"><stop stop-color="#A0EEB5" offset="0%"/><stop stop-color="#0084A0" offset="100%"/></linearGradient><linearGradient x1="50%" y1="0%" x2="50%" y2="100%" id="t"><stop stop-color="#265FF9" offset="0%"/><stop stop-color="#4339FF" offset="100%"/></linearGradient><linearGradient x1="50%" y1="-426.996%" x2="50%" y2="100%" id="u"><stop stop-color="#3CC2FF" offset="0%"/><stop stop-color="#3D69FF" offset="100%"/></linearGradient><linearGradient x1="50%" y1="-426.996%" x2="50%" y2="100%" id="v"><stop stop-color="#3CC2FF" offset="0%"/><stop stop-color="#3D69FF" offset="100%"/></linearGradient><linearGradient x1="50%" y1="100%" x2="43.996%" y2="-19.974%" id="w"><stop stop-color="#C63DCD" offset="0%"/><stop stop-color="#FF45B7" offset="100%"/></linearGradient><linearGradient x1="50%" y1="57.725%" x2="39.643%" y2="39.19%" id="x"><stop stop-color="#C63DCD" offset="0%"/><stop stop-color="#FF45B7" offset="100%"/></linearGradient><linearGradient x1="29.037%" y1="45.192%" x2="67.632%" y2="34.835%" id="y"><stop stop-color="#C63DCD" offset="0%"/><stop stop-color="#FF45B7" offset="100%"/></linearGradient><linearGradient x1="100%" y1="50%" x2="0%" y2="50%" id="z"><stop stop-color="#C63DCD" offset="0%"/><stop stop-color="#FF45B7" stop-opacity="0" offset="100%"/></linearGradient><linearGradient x1="69.209%" y1="27.668%" x2="69.209%" y2="86.088%" id="A"><stop stop-color="#7ED500" offset="0%"/><stop stop-color="#00BF8D" offset="100%"/></linearGradient><filter x="-4.2%" y="-2.7%" width="108.5%" height="108.5%" filterUnits="objectBoundingBox" id="b"><feOffset dy="2" in="SourceAlpha" result="shadowOffsetOuter1"/><feGaussianBlur stdDeviation="1.5" in="shadowOffsetOuter1" result="shadowBlurOuter1"/><feColorMatrix values="0 0 0 0 0 0 0 0 0 0 0 0 0 0 0 0 0 0 0.03 0" in="shadowBlurOuter1"/></filter><filter x="-52.8%" y="-45.6%" width="259.1%" height="282.2%" filterUnits="objectBoundingBox" id="d"><feOffset dx="47" dy="91" in="SourceAlpha" result="shadowOffsetOuter1"/><feGaussianBlur stdDeviation="31.5" in="shadowOffsetOuter1" result="shadowBlurOuter1"/><feColorMatrix values="0 0 0 0 0 0 0 0 0 0 0 0 0 0 0 0 0 0 0.15 0" in="shadowBlurOuter1"/></filter><filter x="-85.5%" y="-43%" width="254.4%" height="272%" filterUnits="objectBoundingBox" id="f"><feOffset dx="-14" dy="72" in="SourceAlpha" result="shadowOffsetOuter1"/><feGaussianBlur stdDeviation="31.5" in="shadowOffsetOuter1" result="shadowBlurOuter1"/><feColorMatrix values="0 0 0 0 0 0 0 0 0 0 0 0 0 0 0 0 0 0 0.15 0" in="shadowBlurOuter1"/></filter><filter x="-61.8%" y="-76.8%" width="224.2%" height="253.7%" filterUnits="objectBoundingBox" id="m"><feOffset dy="11" in="SourceAlpha" result="shadowOffsetOuter1"/><feGaussianBlur stdDeviation="19" in="shadowOffsetOuter1" result="shadowBlurOuter1"/><feColorMatrix values="0 0 0 0 0 0 0 0 0 0 0 0 0 0 0 0 0 0 0.16236413 0" in="shadowBlurOuter1" result="shadowMatrixOuter1"/><feMerge><feMergeNode in="shadowMatrixOuter1"/><feMergeNode in="SourceGraphic"/></feMerge></filter><rect id="c" x="391" y="208" width="130" height="130" rx="4.484"/><rect id="e" x="0" y="78" width="176" height="169" rx="4.484"/><rect id="g" x="339" y="0" width="169" height="157" rx="4.484"/></defs><g transform="translate(15)" fill="none" fill-rule="evenodd"><rect fill="url(#a)" x="122" y="29" width="312" height="379" rx="4.484"/><g fill-rule="nonzero"><use fill="#000" filter="url(#b)" xlink:href="#c"/><use fill="#FFF" xlink:href="#c"/></g><use fill="#000" filter="url(#d)" xlink:href="#e"/><use fill="#FFF" xlink:href="#e"/><use fill="#000" filter="url(#f)" xlink:href="#g"/><use fill="#FFF" xlink:href="#g"/><g transform="translate(387 31)"><ellipse fill="#F52323" opacity=".081" cx="36.5" cy="33.571" rx="33.796" ry="33.571"/><path d="M36.498 33.248c-3.293 0-5.963-3.234-5.963-7.224s.876-7.224 5.963-7.224c5.086 0 5.963 3.234 5.963 7.224s-2.67 7.224-5.963 7.224zm-11.255 11.03c-.003-.068-.002-.242 0 0zm22.525.19c.004-.066.002-.461 0 0zm-.02-.48c.007.444.01.52.013.48v.541s-1.66 3.334-11.263 3.334c-9.604 0-11.263-3.334-11.263-3.334v-.73c.001.064.006.035.017-.518.127-6.767 1.092-8.718 7.98-9.958 0 0 .98 1.246 3.266 1.246 2.285 0 3.265-1.246 3.265-1.246 6.964 1.253 7.874 3.234 7.985 10.184z" fill="url(#h)" fill-rule="nonzero"/><rect fill="#FD7289" y="88.629" width="73" height="5.371" rx="2.686"/></g><circle fill="#FFB400" opacity=".184" cx="88" cy="151" r="38"/><circle fill="#8EF523" opacity=".18" cx="456.5" cy="263.5" r="28.5"/><rect fill="#00BF8D" x="435" y="306" width="43" height="4" rx="2"/><rect fill="#F09944" x="65" y="206" width="47" height="5" rx="2.5"/><path d="M305.712 162.34c2.876-1.161 6.134.19 7.277 3.02 1.143 2.83-.261 6.066-3.137 7.228l-3.697 1.494 8.378 20.736c1.138 2.83-.265 6.062-3.137 7.228l-18.825 7.605c-2.66 1.087-5.7.022-7.042-2.467-1.449-2.687-.406-6.05 2.328-7.513l-8.39-20.767c-1.138-2.83.265-6.062 3.137-7.227l23.108-9.336zm1.382 39.68a5.455 5.455 0 01-2.918-7.223l-15.136 6.116c-2.027.819-3.017 3.1-2.211 5.094.806 1.995 3.102 2.948 5.13 2.129l15.135-6.116zm-4.542-32.443a5.464 5.464 0 01.052-4.217l-19.388 7.833c-2.002.833-2.973 3.096-2.178 5.076l8.379 20.737 17.847-7.21a.824.824 0 011.076.446.824.824 0 01-.464 1.07c-2.025.817-3.014 3.096-2.209 5.088.805 1.993 3.1 2.945 5.124 2.127 2.025-.818 3.014-3.097 2.21-5.09l-10.45-25.86zm5.917 1.806l-.502-1.243-2.92 1.18.503 1.243 2.92-1.18zm1.51-.698c1.527-1.042 2.132-2.983 1.454-4.673-.8-1.995-3.09-2.953-5.118-2.14-2.027.813-3.022 3.088-2.223 5.083l.343.849 3.69-1.49a.824.824 0 011.076.446l.775 1.917.003.008zm-11.868 1.886c.406-.16 1.014.384 1.357 1.217.344.833.293 1.638-.113 1.8l-10.76 4.257c-.407.16-1.015-.384-1.359-1.217-.343-.833-.292-1.638.114-1.799l10.76-4.258zm3.317 6.507c.406-.16 1.014.384 1.358 1.217.343.833.292 1.638-.114 1.8l-10.76 4.257c-.407.16-1.015-.384-1.358-1.217-.344-.833-.293-1.638.113-1.799l10.761-4.258zm1.667 6.503c.406-.16 1.014.384 1.358 1.217.343.833.292 1.638-.114 1.8l-10.76 4.257c-.407.16-1.015-.384-1.358-1.217-.344-.833-.293-1.638.113-1.799l10.76-4.258z" fill="url(#i)" opacity=".304"/><path d="M238.586 121.5l-.756-1.23 27.84-17.67.756 1.23-27.84 17.67zm-5.7-16.2l-2.205-3.713 9.411-6.187 2.206 3.713-9.412 6.187zm13.625-7.2l-.639-1.2 2.043-1.5.638 1.2-2.042 1.5zm3.574 5.4l-.638-1.2 2.042-1.5.639 1.2-2.043 1.5zm-1.574-3.6l-.851-1.2 2.723-1.5.851 1.2-2.723 1.5zm-7.956-9.325c-.948.497-2.076.415-2.52-.183l-.919-1.232c-.444-.598-.038-1.485.91-1.981l6.016-3.154c.946-.497 2.074-.415 2.52.183l.917 1.232c.445.598.038 1.485-.908 1.98l-6.016 3.155zm13.998 9.325l-.638-1.2 2.043-1.5.638 1.2-2.043 1.5zm-1.574-1.8l-.851-1.2 2.723-1.5.851 1.2-2.723 1.5zm-1.788-3.6l-.85-1.2 2.723-1.5.85 1.2-2.723 1.5zm13.444 6.412l1.562-.974 3.803 6.073L237.937 126l-3.803-6.072 1.561-.974-.001-.003L228 101.236l14.497-9.038-.497-.793-1.753 1.092c-1.171.73-2.698.4-3.41-.738l-1.472-2.349c-.713-1.138-.341-2.652.83-3.383l7.442-4.64c1.171-.73 2.698-.398 3.41.74l1.471 2.348c.713 1.138.342 2.653-.83 3.383l-2.074 1.294.497.793 5.937-3.7 12.585 14.664.002.003z" fill="url(#j)" opacity=".304"/><path d="M242.717 206.72l-4.366-6.236a1.264 1.264 0 00-1.76-.317c-.57.4-.706 1.188-.303 1.762l4.366 6.236c.402.574 1.189.715 1.759.316.57-.4.706-1.187.304-1.761zm-4.126 2.89l-4.366-6.236a1.264 1.264 0 00-1.76-.317c-.57.4-.706 1.187-.303 1.761l4.365 6.236a1.263 1.263 0 001.76.316c.57-.399.706-1.187.304-1.76zm-4.127 2.888l-4.366-6.235a1.263 1.263 0 00-1.76-.317c-.57.4-.705 1.188-.303 1.762l4.366 6.235a1.263 1.263 0 001.759.317c.57-.4.706-1.187.304-1.762zm-4.127 2.89l-4.366-6.235a1.263 1.263 0 00-1.759-.317c-.57.399-.706 1.187-.304 1.761l4.366 6.236c.402.574 1.19.715 1.76.316.57-.4.705-1.187.303-1.76zm-4.126 2.89l-4.366-6.236a1.264 1.264 0 00-1.76-.317c-.57.4-.706 1.187-.303 1.762l4.366 6.235a1.263 1.263 0 001.759.317c.57-.4.706-1.188.304-1.762zm10.75-30.758a2.527 2.527 0 013.518.633l1.455 2.079a2.527 2.527 0 01-.608 3.523l6.669 13.915-24.76 17.337-10.794-11.026a2.527 2.527 0 01-3.519-.634l-1.455-2.078a2.527 2.527 0 01.608-3.523l2.807-1.966.183 1.355a2.223 2.223 0 002.478 1.906 2.188 2.188 0 001.884-2.472l-.492-3.627 15.534-10.877 3.24 1.703a2.188 2.188 0 002.966-.925 2.223 2.223 0 00-.943-2.98l-1.21-.636 2.438-1.707zm-23.682 21.235a1.202 1.202 0 01-1.338-1.028l-2.194-15.875a1.172 1.172 0 011.013-1.327 1.203 1.203 0 011.339 1.028l2.193 15.875a1.173 1.173 0 01-1.013 1.327zm21.453-15.037l-14.233-7.482a1.196 1.196 0 01-.512-1.604c.3-.58 1.016-.8 1.598-.494l14.234 7.482c.583.306.812 1.024.512 1.603-.09.174-.218.316-.368.42-.35.245-.823.289-1.23.075z" fill="url(#k)" opacity=".429"/><path d="M151.966 326.448a56.319 56.319 0 014.886-22.984l26.947 73.819c-18.845-9.158-31.833-28.48-31.833-50.835zm94.612-2.854c0 4.84-1.432 10.92-4.297 18.26l-5.638 18.824-20.41-60.714c3.393-.177 6.461-.533 6.461-.533 3.043-.36 2.687-4.836-.36-4.658 0 0-9.149.722-15.057.722-5.547 0-14.873-.722-14.873-.722-3.042-.183-3.403 4.475-.355 4.658 0 0 2.885.356 5.928.533l8.798 24.112-12.364 37.07-20.568-61.182c3.399-.177 6.462-.533 6.462-.533 3.042-.36 2.682-4.836-.361-4.658 0 0-9.143.722-15.05.722-1.063 0-2.312-.026-3.638-.067 10.098-15.34 27.46-25.462 47.195-25.462 14.7 0 28.09 5.617 38.143 14.826-.25-.01-.488-.04-.737-.04-5.547 0-9.484 4.835-9.484 10.021 0 4.658 2.688 8.59 5.547 13.247 2.154 3.759 4.658 8.595 4.658 15.574zm-37.137 7.797l17.362 47.563c.117.274.26.533.407.777a56.52 56.52 0 01-34.72.9l16.951-49.24zm48.572-32.041c4.409 8.04 6.918 17.275 6.918 27.098 0 20.836-11.292 39.025-28.085 48.818l17.25-49.88c3.22-8.055 4.298-14.496 4.298-20.225a42.34 42.34 0 00-.381-5.811zM143 325.997C143 290.154 172.16 261 208.003 261S273 290.16 273 325.997C273 361.836 243.846 391 207.997 391 172.16 391 143 361.836 143 325.997zm2.979 0c0 34.194 27.83 62.02 62.024 62.02 34.193 0 62.018-27.826 62.018-62.02 0-34.193-27.825-62.018-62.024-62.018-34.198 0-62.018 27.825-62.018 62.018z" fill-opacity=".26" fill="url(#l)"/><g filter="url(#m)" transform="translate(202 248)"><path d="M76.254 53.842h12.402A8.78 8.78 0 0197.284 61l3.972 21.154H64.312l3.268-20.891a8.78 8.78 0 018.674-7.422z" fill="url(#n)"/><rect fill="url(#o)" x="12.018" y="80.298" width="140.057" height="38.06" rx="11.551"/><rect fill="url(#p)" x="41.139" width="84.127" height="62.66" rx="10.363"/><g transform="translate(127.577 41.31)"><rect fill="url(#q)" y="7.5" width="25.311" height="28.333" rx="5.841"/><path fill="url(#r)" d="M0 28.5h25.311v1H0z"/><rect fill="url(#s)" x="2.548" y="18.666" width="20.215" height="2.667" rx="1.333"/><path stroke="#DDD" stroke-width=".627" fill="#F2F3F9" d="M6.089.314h13.132v19.373H6.089z"/><rect fill="#E2E3EB" x="7.644" y="2" width="10.022" height="1" rx=".5"/><rect fill="#E2E3EB" x="7.644" y="4.167" width="10.022" height="1" rx=".5"/><rect fill="#E2E3EB" x="7.644" y="6.333" width="10.022" height="1" rx=".5"/><rect fill="#E2E3EB" x="7.644" y="8.5" width="10.022" height="1" rx=".5"/><rect fill="#E2E3EB" x="7.644" y="10.667" width="10.022" height="1" rx=".5"/><rect fill="#E2E3EB" x="7.644" y="12.833" width="10.022" height="1" rx=".5"/><rect fill="#E2E3EB" x="7.644" y="15" width="10.022" height="1" rx=".5"/><rect fill="#E2E3EB" x="7.644" y="17.166" width="10.022" height="1" rx=".5"/><circle fill="red" cx="2.548" cy="26.5" r="1"/></g><rect fill="#F2F3F9" x="46.224" y="5.106" width="73.495" height="52.913" rx=".956"/><g transform="translate(52.233 12.068)"><rect fill="#F5A623" y="9.911" width="7.701" height="7.226" rx="3.135"/><rect fill="#D8DEF8" width="29.792" height="3.975" rx="1.988"/><rect fill="#D8DEF8" x="31.818" y="10.117" width="29.792" height="3.51" rx="1.755"/><rect fill="#D8DEF8" x="31.818" y="18.169" width="29.792" height="3.51" rx="1.755"/><rect fill="#D8DEF8" x="31.818" y="26.635" width="29.792" height="3.51" rx="1.755"/><rect fill="#008AFF" x="32.629" width="4.256" height="4.129" rx="1.254"/><rect fill="#008AFF" x="38.709" width="9.728" height="4.129" rx="1.254"/><rect fill="#008AFF" x="52.085" width="3.851" height="4.129" rx="1.254"/><rect fill="#008AFF" x="57.354" width="3.851" height="4.129" rx="1.254"/><rect fill="#B8C3F4" x="1.621" y="1.652" width="6.283" height="1.445" rx=".723"/><rect fill="#B8C3F4" x="33.44" y="11.149" width="6.283" height="1.445" rx=".723"/><rect fill="#B8C3F4" x="33.44" y="19.202" width="6.283" height="1.445" rx=".723"/><rect fill="#B8C3F4" x="33.44" y="27.667" width="6.283" height="1.445" rx=".723"/><rect fill="#D8DEF8" x="31.818" y="35.1" width="29.792" height="3.51" rx="1.755"/><rect fill="#B8C3F4" x="33.44" y="36.132" width="6.283" height="1.445" rx=".723"/><rect fill="#008AFF" y="21.267" width="7.701" height="7.226" rx="3.135"/><rect fill="#D8DEF8" y="31.59" width="7.701" height="7.226" rx="3.135"/><rect fill="#7ED321" x="10.741" y="9.911" width="7.701" height="7.226" rx="3.135"/><rect fill="#D9B6FA" x="10.741" y="21.267" width="7.701" height="7.226" rx="3.135"/><rect fill="#D8DEF8" x="10.741" y="31.59" width="7.701" height="7.226" rx="3.135"/><rect fill="#50E3C2" x="21.28" y="9.911" width="7.701" height="7.226" rx="3.135"/><rect fill="#B164FF" x="21.28" y="21.267" width="7.701" height="7.226" rx="3.135"/><rect fill="#D8DEF8" x="21.28" y="31.59" width="7.701" height="7.226" rx="3.135"/></g><rect fill="#3D61FF" x="18.027" y="118.358" width="18.027" height="4.642" rx="2.321"/><rect fill="#3D61FF" x="127.115" y="118.358" width="18.027" height="4.642" rx="2.321"/><path d="M28.886 83.547h107.708c5.998 0 10.86 4.862 10.86 10.859v8.916c0 5.997-4.862 10.86-10.86 10.86H28.886c-5.997 0-10.859-4.863-10.859-10.86v-8.916c0-5.997 4.862-10.859 10.859-10.859z" fill="url(#t)"/><ellipse fill="url(#u)" cx="134.511" cy="100.257" rx="4.622" ry="4.642"/><path d="M134.973 97.472v4.177" stroke="#2C2E36" stroke-width="1.947" stroke-linecap="round" stroke-linejoin="round"/><rect fill="url(#v)" x="25.885" y="98.4" width="86.9" height="2.785" rx="1.392"/><path d="M17.416.083C21.454.188 39.57 1.185 38.963 9.49c-1.322 3.117-2.901 1.891-4.351 1.891-1.45 0 5.23 6.388 1.89 21.83-2.242.03-5.01.03-8.305 0l-4.414-20.906H16.27c-1.73-.421-2.596-1.36-2.596-2.815V2.45c0-1.932 1.247-2.721 3.742-2.366z" fill="url(#w)" transform="translate(0 40.381)"/><path d="M28.26 32.994h8.13c1.04 1.868.824 3.266-.647 4.193l-10.052.266.053-1.584 2.516-2.875z" fill="url(#x)" transform="translate(0 40.381)"/><path d="M23.826 18.401c.531 2.278 1.373 6.416 2.527 12.414 3.357.85 5.035.472 5.035-1.132 0-1.603-.64-4.895-1.922-9.874-.772-1.89-2.651-2.36-5.64-1.408z" fill="url(#y)" transform="translate(0 40.381)"/><path fill="url(#z)" d="M12.536 2.592v6.745L.068 12.684V0z" transform="translate(0 40.381)"/></g><path d="M453.212 269.116l-.506-4.394c-.062-.54.376-1.024.978-1.08.603-.056 1.142.337 1.204.878l.506 4.394c.062.541-.376 1.025-.978 1.08a1.238 1.238 0 01-.114.006c-.556 0-1.032-.377-1.09-.884zm5.872.879c-.602-.056-1.04-.54-.978-1.081l.506-4.394c.062-.541.6-.934 1.204-.878.602.055 1.04.54.978 1.08l-.506 4.394c-.058.507-.534.884-1.09.884-.037 0-.075-.002-.114-.005zm-6.834 4.55c1.737 0 3.15 1.224 3.15 2.727 0 1.504-1.413 2.728-3.15 2.728-1.737 0-3.15-1.224-3.15-2.728 0-1.503 1.413-2.727 3.15-2.727zm0 3.693c.615 0 1.115-.433 1.115-.966 0-.532-.5-.965-1.115-.965s-1.115.433-1.115.965c0 .533.5.966 1.115.966zm9-3.693c1.737 0 3.15 1.224 3.15 2.727 0 1.504-1.413 2.728-3.15 2.728-1.737 0-3.15-1.224-3.15-2.728 0-1.503 1.413-2.727 3.15-2.727zm0 3.693c.615 0 1.115-.433 1.115-.966 0-.532-.5-.965-1.115-.965s-1.115.433-1.115.965c0 .533.5.966 1.115.966zm6.547-17.664a.965.965 0 01.172.835l-3.002 11.504a.97.97 0 01-.939.723h-14.08a.97.97 0 01-.939-.723l-2.994-11.475a.96.96 0 01-.015-.057l-.804-3.084h-3.226a.968.968 0 01-.97-.967c0-.534.434-.966.97-.966h3.976a.97.97 0 01.938.723l.812 3.112h19.334c.3 0 .584.138.767.375zm-4.519 11.129l2.497-9.57H448.2l2.498 9.57h12.58zm-10.514-16.647a.965.965 0 010-1.931h5.644l-1.475-1.476a.967.967 0 010-1.366.963.963 0 011.364 0l3.12 3.126a.967.967 0 010 1.366l-3.118 3.124a.96.96 0 01-1.363 0 .967.967 0 010-1.366l1.474-1.476h-5.646z" fill="url(#A)" fill-rule="nonzero"/><path d="M79.65 148.448l3.11 6.676a.615.615 0 01-.302.819.62.62 0 01-.823-.3l-.781-1.677H77.35l-.77 1.674a.62.62 0 01-1.127-.513l3.071-6.676a.62.62 0 01.562-.36h.002c.241 0 .46.14.562.357zm-1.732 4.284h2.361l-1.188-2.55-1.173 2.55zm8.8-4.641c1.334 0 2.42 1.067 2.42 2.379s-1.086 2.379-2.42 2.379h-2.384v2.54c0 .338-.278.611-.621.611a.616.616 0 01-.621-.61v-6.688c0-.338.278-.611.621-.611h3.004zm0 3.536c.649 0 1.177-.519 1.177-1.157s-.528-1.158-1.178-1.158h-2.383v2.315h2.383zm3.519-3.536c.303 0 .55.273.55.61v6.688c0 .338-.247.611-.55.611-.304 0-.55-.273-.55-.61v-6.688c0-.338.246-.611.55-.611zM105.893 138c.61 0 1.107.493 1.107 1.1v24.8c0 .607-.497 1.1-1.107 1.1H72.107c-.61 0-1.107-.493-1.107-1.1v-24.8c0-.607.497-1.1 1.107-1.1h33.786zm-8.277 20.016a3.052 3.052 0 00-.018 2.367 3.083 3.083 0 001.673 1.687c.387.163.795.246 1.213.246 1.254 0 2.38-.74 2.87-1.888a3.09 3.09 0 00-1.654-4.055 3.117 3.117 0 00-1.214-.245 3.112 3.112 0 00-2.87 1.888zm3.782-16.885a1.17 1.17 0 00-1.173 1.165 1.17 1.17 0 001.173 1.165 1.17 1.17 0 001.173-1.165 1.17 1.17 0 00-1.173-1.165zm-3.52 0a1.17 1.17 0 00-1.173 1.165 1.17 1.17 0 001.173 1.165 1.17 1.17 0 001.174-1.165 1.17 1.17 0 00-1.174-1.165zm-3.52 0a1.17 1.17 0 00-1.173 1.165 1.17 1.17 0 001.173 1.165c.648 0 1.173-.521 1.173-1.165a1.17 1.17 0 00-1.173-1.165zm-21.343 22.034c0 .052.042.094.094.094h21.485l-.836-1.378a1.387 1.387 0 01.477-1.91l.26-.155a5.986 5.986 0 01.225-2.572l-.23-.197a1.379 1.379 0 01-.14-1.962l1.39-1.59a1.403 1.403 0 011.976-.14l.23.198c.79-.37 1.658-.57 2.532-.582l.119-.278a1.399 1.399 0 011.836-.739l1.952.821c.252.106.454.277.6.484v-6.328h-31.97v16.234z" fill="#F09944" fill-rule="nonzero"/></g></svg>