<?xml version="1.0" encoding="UTF-8"?>
<svg width="435px" height="377px" viewBox="0 0 435 377" version="1.1" xmlns="http://www.w3.org/2000/svg" xmlns:xlink="http://www.w3.org/1999/xlink">
    <!-- Generator: Sketch 54.1 (76490) - https://sketchapp.com -->
    <title>Group 51</title>
    <desc>Created with Sketch.</desc>
    <defs>
        <linearGradient x1="50%" y1="0%" x2="50%" y2="100%" id="linearGradient-1">
            <stop stop-color="#C2E998" offset="0%"></stop>
            <stop stop-color="#02CC87" offset="100%"></stop>
        </linearGradient>
        <linearGradient x1="45.8062637%" y1="-70.8285458%" x2="56.5032846%" y2="84.6194572%" id="linearGradient-2">
            <stop stop-color="#F9FBFE" offset="0%"></stop>
            <stop stop-color="#C2D7F3" offset="100%"></stop>
        </linearGradient>
        <linearGradient x1="50%" y1="0%" x2="50%" y2="100%" id="linearGradient-3">
            <stop stop-color="#7001E3" offset="0%"></stop>
            <stop stop-color="#4600CF" offset="100%"></stop>
        </linearGradient>
        <linearGradient x1="50%" y1="0%" x2="50%" y2="100%" id="linearGradient-4">
            <stop stop-color="#CD80FF" offset="0%"></stop>
            <stop stop-color="#5AC0D8" offset="100%"></stop>
        </linearGradient>
        <linearGradient x1="50%" y1="0%" x2="50%" y2="100%" id="linearGradient-5">
            <stop stop-color="#FEE5AC" offset="0%"></stop>
            <stop stop-color="#FFB181" offset="100%"></stop>
        </linearGradient>
        <linearGradient x1="50%" y1="0%" x2="50%" y2="100%" id="linearGradient-6">
            <stop stop-color="#FEE5AC" offset="0%"></stop>
            <stop stop-color="#FFB181" offset="100%"></stop>
        </linearGradient>
        <linearGradient x1="50%" y1="0%" x2="50%" y2="100%" id="linearGradient-7">
            <stop stop-color="#FEE5AC" offset="0%"></stop>
            <stop stop-color="#FFB181" offset="100%"></stop>
        </linearGradient>
        <linearGradient x1="50%" y1="0%" x2="50%" y2="100%" id="linearGradient-8">
            <stop stop-color="#FEE5AC" offset="0%"></stop>
            <stop stop-color="#FFB181" offset="100%"></stop>
        </linearGradient>
        <linearGradient x1="50%" y1="0%" x2="50%" y2="100%" id="linearGradient-9">
            <stop stop-color="#FFD1EE" offset="0%"></stop>
            <stop stop-color="#FF6BAF" offset="100%"></stop>
        </linearGradient>
        <linearGradient x1="0%" y1="49.9273312%" x2="100%" y2="50.0726688%" id="linearGradient-10">
            <stop stop-color="#FAD7A1" offset="0%"></stop>
            <stop stop-color="#E96D71" offset="100%"></stop>
        </linearGradient>
        <linearGradient x1="58.9147919%" y1="-121.105757%" x2="68.3652878%" y2="76.6252307%" id="linearGradient-11">
            <stop stop-color="#F9FBFE" offset="0%"></stop>
            <stop stop-color="#C2D7F3" offset="100%"></stop>
        </linearGradient>
    </defs>
    <g id="Page-1" stroke="none" stroke-width="1" fill="none" fill-rule="evenodd">
        <g id="Home-Page-Design-of-wePOS" transform="translate(-958.000000, -2014.000000)">
            <g id="Group-51" transform="translate(958.000000, 2014.000000)">
                <path d="M55.6049557,264.186704 C37.4773896,251.399204 19.5721396,230.062504 9.75501315,209.834604 C-7.30609604,174.686304 5.12709649,123.799204 33.918131,86.4960044 C63.7756223,49.1961044 99.434243,18.1695044 146.352844,5.38090439 C180.472861,-4.21109561 231.54393,-3.31459561 258.20095,27.5932044 C269.930875,42.5125044 265.666148,61.6954044 282.727257,71.2874044 C300.854823,80.8794044 331.29672,78.5540044 349.787476,92.8628044 C397.247559,129.589604 383.926203,168.703404 374.399628,195.435604 C356.332594,246.132404 307.776338,274.656504 307.776338,274.656504 L55.6049557,264.186704 Z" id="Fill-1" fill="#6C75FF" opacity="0.0738467262"></path>
                <path d="M296.002285,44.0281955 C287.42654,47.413004 298.769649,66.080081 310.584941,66.9806264 C322.404256,67.8811717 313.674248,37.0533568 296.002285,44.0281955" id="Fill-4" fill="#028AFB" opacity="0.10093471"></path>
                <path d="M3.71969318,76.4185473 C-0.840448216,73.5934352 4.4397155,64.0969609 10.5631197,67.8763571 C14.9239692,70.5688399 8.40305268,79.3180612 3.71969318,76.4185473" id="Fill-6" fill="#9B59B6" opacity="0.225911458"></path>
                <path d="M285.3293,37.9911867 C279.358151,38.4378914 276.083649,21.7539207 282.503213,22.0027562 C288.922776,22.2515917 298.683101,36.9928467 285.3293,37.9911867" id="Fill-8" fill="#6C75FF" opacity="0.0738467262"></path>
                <path d="M395.480229,251 C367.243619,251 305.006563,83.0892074 403.569899,58.6326307 C457.820998,45.1712746 432.9937,251 395.480229,251" id="Fill-10" fill="url(#linearGradient-1)"></path>
                <path d="M358,313.336784 C358,341.766118 367.189706,366.199686 380.356618,377 L410.643382,377 C423.810294,366.199686 433,341.766118 433,313.336784 C433,294.552627 428.984191,277.520941 422.465809,265 L368.534191,265 C362.015809,277.520941 358,294.552627 358,313.336784" id="Fill-12" fill="url(#linearGradient-2)"></path>
                <path d="M396,233 L412,206" id="Stroke-16" stroke="#A7E4A8" stroke-width="2"></path>
                <path d="M396,193 L381,178" id="Stroke-18" stroke="#A7E4A8" stroke-width="2"></path>
                <path d="M396,152 L409,127" id="Stroke-20" stroke="#A7E4A8" stroke-width="2"></path>
                <path d="M155.083317,88.2917305 C155.083317,88.2917305 137.509923,60.3860326 148.762469,48.0905418 C157.800783,38.2140178 170.787553,48.8477161 176.911531,52.6080898 C183.03772,56.3706807 187.604436,58.6832219 194.795713,56.6068127 C206.451952,53.2411008 211.144753,65.5532207 211.746422,70.0718773 C213.762679,85.2353183 203.093,92 203.093,92 C187.194106,91.7450218 155.083317,88.2917305 155.083317,88.2917305" id="Fill-22" fill="url(#linearGradient-3)"></path>
                <polygon id="Fill-24" fill="url(#linearGradient-4)" points="232.354575 199.999448 233.924487 270 246.866931 269.590743 257 188.91532 225.448059 130.537218 130.08852 130 100 198.632685 118.253797 269.904029 128.032264 269.493669 126.232903 201.860408 135.39109 176.212918 139.006279 256.075343 219.553752 256.075343 222.021698 177.34582"></polygon>
                <path d="M201.220695,85.5053283 C201.220695,85.5053283 207.13935,83.3084044 206.99749,88.076038 C206.811899,94.1013387 199,98 199,98 L201.220695,85.5053283 Z" id="Fill-26" fill="url(#linearGradient-5)"></path>
                <path d="M158.199287,83.7853522 C158.199287,83.7853522 152.148433,80.9691342 152.002995,86.00259 C151.820936,92.363242 160,97 160,97 L158.199287,83.7853522 Z" id="Fill-28" fill="url(#linearGradient-6)"></path>
                <polygon id="Fill-30" fill="url(#linearGradient-7)" points="163.33006 122.027845 195.170357 123 204 73.460998 156 72"></polygon>
                <path d="M176.69835,98.916817 C177.441878,93.006035 177.845051,87.9564487 177.768528,86 C177.206599,87.8791763 176.344289,92.872768 175.600761,98.7835501 C175.388325,100.614571 175.185025,102.36832 175,103.959684 C175.678426,103.972003 176.339721,103.983202 176.979315,103.99552 C177.441878,103.99664 177.891878,103.99888 178.323604,104 C179.188198,103.991041 179.98769,103.982082 180.709518,103.975362 C182.15203,103.942886 183.285025,103.882411 184,103.79282 C183.291878,103.652834 182.169162,103.510608 180.73236,103.373981 C180.012817,103.314627 179.216751,103.247434 178.354442,103.175761 C177.922716,103.144404 177.476142,103.114167 177.013579,103.08281 C176.782868,103.067131 176.547589,103.052573 176.308883,103.038014 C176.144416,103.029055 176.180964,103.026815 176.160406,103.023455 L176.131853,103.014496 L176.150127,102.965221 C176.174112,102.797238 176.199239,102.627014 176.223223,102.454551 C176.275761,102.081628 176.329442,101.700865 176.384264,101.314503 C176.484772,100.538418 176.589848,99.735457 176.69835,98.916817" id="Fill-32" fill="#FD9392"></path>
                <path d="M171.263032,122.443668 L187,122.443668 L186.824645,131.27439 C186.824645,131.27439 188.463718,142.613917 178.721412,141.999998 C172.496629,141.607738 171,138.981304 171,131.176282 L171.263032,122.443668 Z" id="Fill-34" fill="url(#linearGradient-8)"></path>
                <polygon id="Fill-36" fill="#FFAEA8" points="187 130 171 124.095376 171 122 186.913759 122.497463"></polygon>
                <polygon id="Fill-38" fill="url(#linearGradient-9)" points="7 377 335 377 335 216 7 216"></polygon>
                <polygon id="Fill-40" fill="url(#linearGradient-10)" points="0 228 341 228 341 215 0 215"></polygon>
                <polygon id="Fill-41" fill="#FFFFFF" opacity="0.526460193" points="98.3666223 377 233 228 7 228 7 377"></polygon>
                <polygon id="Fill-42" fill="#FFFFFF" opacity="0.28687686" points="117 377 224 265 135.941782 377"></polygon>
                <path d="M58,206 L145,206 C147.761424,206 150,203.761424 150,201 L150,146 C150,143.238576 147.761424,141 145,141 L58,141 C55.2385763,141 53,143.238576 53,146 L53,201 C53,203.761424 55.2385763,206 58,206 Z" id="Fill-43" fill="url(#linearGradient-11)"></path>
                <polygon id="Fill-44" fill="#7C86C9" points="73 193 130 193 130 155 73 155"></polygon>
                <polygon id="Fill-45" fill="#7C86C9" points="86 215 117 215 117 192 86 192"></polygon>
                <polygon id="Fill-46" fill="#3D566E" points="227 215 278 215 278 206 227 206"></polygon>
                <polygon id="Fill-47" fill="#8FE3F0" points="298.137969 207 296 206.459451 304.862031 172 307 172.540549"></polygon>
                <polygon id="Fill-48" fill="#8FE3F0" points="296.302836 205 294 204.690486 299.698327 167 302 167.309514"></polygon>
                <polygon id="Fill-49" fill="#8FE3F0" points="295 206.230351 291.773447 207 284 171.770761 287.226553 171"></polygon>
                <polygon id="Fill-50" fill="#5DC1D8" points="286 215 304 215 304 189 286 189"></polygon>
                <path d="M395.5,264 L395.5,122" id="Stroke-14" stroke="#A7E4A8" stroke-width="2"></path>
            </g>
        </g>
    </g>
</svg>