<svg width="828" height="627" xmlns="http://www.w3.org/2000/svg" xmlns:xlink="http://www.w3.org/1999/xlink"><defs><filter id="j" x="-21.5%" y="-15.9%" width="143%" height="163.7%"><feOffset dy="66" in="SourceAlpha" result="shadowOffsetOuter1"/><feGaussianBlur in="shadowOffsetOuter1" result="shadowBlurOuter1" stdDeviation="33"/><feColorMatrix in="shadowBlurOuter1" values="0 0 0 0 0 0 0 0 0 0 0 0 0 0 0 0 0 0 0.07 0"/></filter><filter id="l" x="-.9%" y="-9.2%" width="101.8%" height="128.8%"><feOffset dy="2" in="SourceAlpha" result="shadowOffsetOuter1"/><feGaussianBlur in="shadowOffsetOuter1" result="shadowBlurOuter1" stdDeviation="1.5"/><feColorMatrix in="shadowBlurOuter1" values="0 0 0 0 0 0 0 0 0 0 0 0 0 0 0 0 0 0 0.03 0"/></filter><filter id="n" x="-8.3%" y="-5.7%" width="116.6%" height="118%"><feOffset dy="2" in="SourceAlpha" result="shadowOffsetOuter1"/><feGaussianBlur in="shadowOffsetOuter1" result="shadowBlurOuter1" stdDeviation="1.5"/><feColorMatrix in="shadowBlurOuter1" values="0 0 0 0 0 0 0 0 0 0 0 0 0 0 0 0 0 0 0.03 0"/></filter><filter id="p" x="-8.3%" y="-5.7%" width="116.6%" height="118%"><feOffset dy="2" in="SourceAlpha" result="shadowOffsetOuter1"/><feGaussianBlur in="shadowOffsetOuter1" result="shadowBlurOuter1" stdDeviation="1.5"/><feColorMatrix in="shadowBlurOuter1" values="0 0 0 0 0 0 0 0 0 0 0 0 0 0 0 0 0 0 0.03 0"/></filter><filter id="r" x="-8.3%" y="-5.7%" width="116.6%" height="118%"><feOffset dy="2" in="SourceAlpha" result="shadowOffsetOuter1"/><feGaussianBlur in="shadowOffsetOuter1" result="shadowBlurOuter1" stdDeviation="1.5"/><feColorMatrix in="shadowBlurOuter1" values="0 0 0 0 0 0 0 0 0 0 0 0 0 0 0 0 0 0 0.03 0"/></filter><filter id="t" x="-8.3%" y="-5.7%" width="116.6%" height="118%"><feOffset dy="2" in="SourceAlpha" result="shadowOffsetOuter1"/><feGaussianBlur in="shadowOffsetOuter1" result="shadowBlurOuter1" stdDeviation="1.5"/><feColorMatrix in="shadowBlurOuter1" values="0 0 0 0 0 0 0 0 0 0 0 0 0 0 0 0 0 0 0.03 0"/></filter><filter id="v" x="-8.3%" y="-5.7%" width="116.6%" height="118%"><feOffset dy="2" in="SourceAlpha" result="shadowOffsetOuter1"/><feGaussianBlur in="shadowOffsetOuter1" result="shadowBlurOuter1" stdDeviation="1.5"/><feColorMatrix in="shadowBlurOuter1" values="0 0 0 0 0 0 0 0 0 0 0 0 0 0 0 0 0 0 0.03 0"/></filter><filter id="x" x="-8.3%" y="-5.7%" width="116.6%" height="118%"><feOffset dy="2" in="SourceAlpha" result="shadowOffsetOuter1"/><feGaussianBlur in="shadowOffsetOuter1" result="shadowBlurOuter1" stdDeviation="1.5"/><feColorMatrix in="shadowBlurOuter1" values="0 0 0 0 0 0 0 0 0 0 0 0 0 0 0 0 0 0 0.03 0"/></filter><filter id="z" x="-8.3%" y="-5.7%" width="116.6%" height="118%"><feOffset dy="2" in="SourceAlpha" result="shadowOffsetOuter1"/><feGaussianBlur in="shadowOffsetOuter1" result="shadowBlurOuter1" stdDeviation="1.5"/><feColorMatrix in="shadowBlurOuter1" values="0 0 0 0 0 0 0 0 0 0 0 0 0 0 0 0 0 0 0.03 0"/></filter><filter id="B" x="-8.3%" y="-5.7%" width="116.6%" height="118%"><feOffset dy="2" in="SourceAlpha" result="shadowOffsetOuter1"/><feGaussianBlur in="shadowOffsetOuter1" result="shadowBlurOuter1" stdDeviation="1.5"/><feColorMatrix in="shadowBlurOuter1" values="0 0 0 0 0 0 0 0 0 0 0 0 0 0 0 0 0 0 0.03 0"/></filter><filter id="D" x="-8.3%" y="-5.7%" width="116.6%" height="118%"><feOffset dy="2" in="SourceAlpha" result="shadowOffsetOuter1"/><feGaussianBlur in="shadowOffsetOuter1" result="shadowBlurOuter1" stdDeviation="1.5"/><feColorMatrix in="shadowBlurOuter1" values="0 0 0 0 0 0 0 0 0 0 0 0 0 0 0 0 0 0 0.03 0"/></filter><filter id="F" x="-8.3%" y="-5.7%" width="116.6%" height="118%"><feOffset dy="2" in="SourceAlpha" result="shadowOffsetOuter1"/><feGaussianBlur in="shadowOffsetOuter1" result="shadowBlurOuter1" stdDeviation="1.5"/><feColorMatrix in="shadowBlurOuter1" values="0 0 0 0 0 0 0 0 0 0 0 0 0 0 0 0 0 0 0.03 0"/></filter><filter id="H" x="-8.3%" y="-5.7%" width="116.6%" height="118%"><feOffset dy="2" in="SourceAlpha" result="shadowOffsetOuter1"/><feGaussianBlur in="shadowOffsetOuter1" result="shadowBlurOuter1" stdDeviation="1.5"/><feColorMatrix in="shadowBlurOuter1" values="0 0 0 0 0 0 0 0 0 0 0 0 0 0 0 0 0 0 0.03 0"/></filter><filter id="J" x="-8.3%" y="-5.7%" width="116.6%" height="118%"><feOffset dy="2" in="SourceAlpha" result="shadowOffsetOuter1"/><feGaussianBlur in="shadowOffsetOuter1" result="shadowBlurOuter1" stdDeviation="1.5"/><feColorMatrix in="shadowBlurOuter1" values="0 0 0 0 0 0 0 0 0 0 0 0 0 0 0 0 0 0 0.03 0"/></filter><filter id="L" x="-8.3%" y="-5.7%" width="116.6%" height="118%"><feOffset dy="2" in="SourceAlpha" result="shadowOffsetOuter1"/><feGaussianBlur in="shadowOffsetOuter1" result="shadowBlurOuter1" stdDeviation="1.5"/><feColorMatrix in="shadowBlurOuter1" values="0 0 0 0 0 0 0 0 0 0 0 0 0 0 0 0 0 0 0.03 0"/></filter><filter id="N" x="-43.3%" y="-26.2%" width="186.7%" height="177.2%"><feOffset dy="38" in="SourceAlpha" result="shadowOffsetOuter1"/><feGaussianBlur in="shadowOffsetOuter1" result="shadowBlurOuter1" stdDeviation="33"/><feColorMatrix in="shadowBlurOuter1" values="0 0 0 0 0 0 0 0 0 0 0 0 0 0 0 0 0 0 0.15 0"/></filter><filter id="P" x="-2%" y="-15.2%" width="104.1%" height="147.7%"><feOffset dy="2" in="SourceAlpha" result="shadowOffsetOuter1"/><feGaussianBlur in="shadowOffsetOuter1" result="shadowBlurOuter1" stdDeviation="1.5"/><feColorMatrix in="shadowBlurOuter1" values="0 0 0 0 0 0 0 0 0 0 0 0 0 0 0 0 0 0 0.03 0"/></filter><filter id="R" x="-2.6%" y="-21.1%" width="105.1%" height="166.2%"><feOffset dy="2" in="SourceAlpha" result="shadowOffsetOuter1"/><feGaussianBlur in="shadowOffsetOuter1" result="shadowBlurOuter1" stdDeviation="1.5"/><feColorMatrix in="shadowBlurOuter1" values="0 0 0 0 0 0 0 0 0 0 0 0 0 0 0 0 0 0 0.03 0"/></filter><filter id="T" x="-2.3%" y="-21.1%" width="104.5%" height="166.2%"><feOffset dy="2" in="SourceAlpha" result="shadowOffsetOuter1"/><feGaussianBlur in="shadowOffsetOuter1" result="shadowBlurOuter1" stdDeviation="1.5"/><feColorMatrix in="shadowBlurOuter1" values="0 0 0 0 0 0 0 0 0 0 0 0 0 0 0 0 0 0 0.03 0"/></filter><rect id="k" width="614.13" height="414.16" rx="5.464"/><rect id="o" x="149.49" y="26.326" width="66.448" height="61.257" rx="1.88"/><rect id="q" x=".94" y="95.901" width="66.448" height="61.257" rx="1.88"/><rect id="s" x=".94" y="165.48" width="66.448" height="61.257" rx="1.88"/><rect id="u" x=".94" y="235.05" width="66.448" height="61.257" rx="1.88"/><rect id="w" x="149.49" y="95.901" width="66.448" height="61.257" rx="1.88"/><rect id="y" x="149.49" y="165.48" width="66.448" height="61.257" rx="1.88"/><rect id="A" x="149.49" y="235.05" width="66.448" height="61.257" rx="1.88"/><rect id="C" x="223.77" y="26.326" width="66.448" height="61.257" rx="1.88"/><rect id="E" x="75.217" y="95.901" width="66.448" height="61.257" rx="1.88"/><rect id="G" x="75.217" y="165.48" width="66.448" height="61.257" rx="1.88"/><rect id="I" x="75.217" y="235.05" width="66.448" height="61.257" rx="1.88"/><rect id="K" x="223.77" y="95.901" width="66.448" height="61.257" rx="1.88"/><rect id="M" x="223.77" y="165.48" width="66.448" height="61.257" rx="1.88"/><linearGradient id="c" x1="66.968%" x2="50%" y1="-175.82%" y2="95.113%"><stop stop-color="#FFD1EE" offset="0"/><stop stop-color="#FF6BAF" offset="1"/></linearGradient><linearGradient id="d" x1="50%" x2="50%" y2="100%"><stop stop-color="#C1E3FF" offset="0"/><stop stop-color="#6F88FC" offset="1"/></linearGradient><linearGradient id="e" x1="47.075%" x2="58.673%" y1="-8.856%" y2="166.96%"><stop stop-color="#B4EC51" offset="0"/><stop stop-color="#429321" offset="1"/></linearGradient><linearGradient id="h" x1="66.968%" x2="50%" y1="-176.68%" y2="95.284%"><stop stop-color="#FFD1EE" offset="0"/><stop stop-color="#FF6BAF" offset="1"/></linearGradient><linearGradient id="i" x1="47.086%" x2="58.64%" y1="-8.856%" y2="166.96%"><stop stop-color="#B4EC51" offset="0"/><stop stop-color="#429321" offset="1"/></linearGradient><linearGradient id="V" x1="14.552%" x2="82.772%" y1="14.691%" y2="85.252%"><stop stop-color="#C444FB" offset="0"/><stop stop-color="#5B56D7" offset="1"/></linearGradient><linearGradient id="W" x2="98.918%" y2="98.918%"><stop stop-color="#FFF720" offset="0"/><stop stop-color="#3CD500" offset="1"/></linearGradient><linearGradient id="X" x1="50%" x2="50%" y2="98.908%"><stop stop-color="#FFA1EB" offset="0"/><stop stop-color="#FD575B" offset="1"/></linearGradient><linearGradient id="Y" x1="50%" x2="50%" y1="100%" y2="0%"><stop stop-color="#A75BFF" offset="0"/><stop stop-color="#E2CBFF" offset="1"/></linearGradient><linearGradient id="Z" x1="50%" x2="67.068%" y1="-27.552%" y2="117.83%"><stop stop-color="#00EAEF" offset="0"/><stop stop-color="#0093FF" offset="1"/></linearGradient><linearGradient id="aa" y2="100%"><stop stop-color="#97ABFF" offset="0"/><stop stop-color="#123597" offset="1"/></linearGradient><path id="a" d="M0 0h145v254H0z"/><path id="f" d="M0 0h96v168H0z"/><path id="m" d="M5.464 0h603.21a5.464 5.464 0 015.464 5.464v32.783H.008V5.464A5.464 5.464 0 015.47 0z"/><path id="O" d="M301.15 26.764H573.4V332.43H301.15z"/><path id="Q" d="M303.63 26.764h268.21c.862 0 1.56.699 1.56 1.56v21.512H302.07V28.324c0-.861.699-1.56 1.56-1.56z"/><path id="S" d="M1.56 0h211.91c.862 0 1.56.699 1.56 1.56v13.491a1.56 1.56 0 01-1.56 1.56H1.56A1.56 1.56 0 010 15.052V1.561C0 .698.699 0 1.56 0z"/><path id="U" d="M303.63 0h239.6c.862 0 1.56.699 1.56 1.56v13.491a1.56 1.56 0 01-1.56 1.56h-239.6a1.56 1.56 0 01-1.56-1.56V1.561c0-.862.698-1.561 1.56-1.561z"/></defs><g fill="none" fill-rule="evenodd"><g transform="translate(-3 242)"><mask id="b" fill="#fff"><use xlink:href="#a"/></mask><g mask="url(#b)"><g fill-rule="nonzero"><path d="M8.688 23.038c1.574 9.164 3.989 18.277 8.364 26.25 4.376 7.973 10.877 14.773 18.844 17.838-3.245.313-6.36-1.321-9.573-1.899-3.214-.577-7.238.495-8.2 3.935-.36 1.273-.216 2.655.05 3.956 1.514 7.418 6.874 13.324 13.025 16.724 6.15 3.397 13.074 4.634 19.899 5.573-4.636 2.632-10.95 1.907-14.294 6.324-3.395 4.482-1.312 11.675 2.63 15.57 3.021 2.992 6.863 4.745 10.683 6.253 27.558 10.878 86.213 1.417 86.213 1.417s-7.43-59.219-13.97-69.387c-2.47-3.837-6.426-7.602-10.52-6.287-4.492 1.446-5.718 7.718-6.154 12.867-3.58-13.729-8.652-27.766-18.667-36.799-3.602-3.253-8.785-5.765-12.76-3.098-4.144 2.78-4.339 9.23-4.043 14.578-5.536-14.211-16.93-25.48-30.321-29.982C27.233 2.613 13.424 4.223.75.012 6.2 5.806 7.276 14.826 8.686 23.037" fill="url(#c)" opacity=".779" transform="rotate(5 -1280.419 264.854)"/><path d="M127.07 246.34a53.866 53.866 0 01-9.084-2.064l-1.099-.09c-5.066-.42-10.1-.994-15.128-1.694a275.946 275.946 0 01-15.035-2.46c-4.986-1.004-9.965-2.074-14.885-3.46-1.237-.302-2.457-.714-3.68-1.083a71.273 71.273 0 01-3.657-1.19c-1.212-.435-2.433-.812-3.632-1.293l-3.584-1.47c4.883 1.536 9.813 2.766 14.773 3.816 4.956 1.068 9.944 1.94 14.937 2.753 4.99.84 10.005 1.495 15.017 2.168 2.78.345 5.564.68 8.349.993-5.008-2.376-9.823-5.44-14.33-9.078-.21-.166-.417-.342-.627-.512-2.12-.465-4.237-.947-6.345-1.485a255.633 255.633 0 01-10.023-2.696c-3.33-.946-6.64-2.002-9.937-3.115-3.287-1.145-6.567-2.322-9.803-3.656 3.348.862 6.669 1.82 10.023 2.619 3.343.849 6.69 1.663 10.041 2.461l10.063 2.309c.821.176 1.644.356 2.465.535a96.469 96.469 0 01-8.976-9.355c-1.887-2.259-3.655-4.668-5.328-7.177a48.27 48.27 0 00-2.282-1.513c-3.369-2.077-6.831-4.004-10.297-5.868a239.759 239.759 0 00-10.539-5.256c-3.53-1.724-7.106-3.375-10.485-5.54 3.541 1.704 7.148 3.133 10.783 4.513 3.624 1.413 7.233 2.94 10.78 4.657a141.513 141.513 0 019.49 4.979c-1.002-1.658-1.968-3.347-2.897-5.062a136.61 136.61 0 01-2.766-5.41c-1.39-1.58-2.861-3.11-4.33-4.599-2.301-2.345-4.642-4.64-6.985-6.931l-14.109-13.732c2.585 1.858 5.082 3.893 7.596 5.897a248.804 248.804 0 017.386 6.314 213.991 213.991 0 017.191 6.687c.198.196.392.404.588.6-2.426-5.534-4.589-11.243-6.599-17.023l-3.875-6.164a110.667 110.667 0 00-4.935-7.252 101.384 101.384 0 00-5.442-6.645c-1.862-2.174-3.827-4.198-5.746-6.314 2.17 1.674 4.252 3.517 6.323 5.4 2.042 1.926 4.02 3.985 5.875 6.23 1.866 2.226 3.58 4.654 5.237 7.116l-.558-1.715c-2.092-6.464-4.168-12.91-6.985-18.783-.054-.113-.113-.222-.168-.336l-.223.09-.094-.72c-2.725-5.458-6.225-10.335-10.74-13.39-.1-.068-.14-.23-.09-.369.054-.145.187-.211.296-.148 2.503 1.44 4.802 3.437 6.834 5.811 1.21 1.423 2.319 2.983 3.356 4.619-.006-.085-.014-.17-.017-.256-.064-1.498-.073-3.003.051-4.502.123-1.497.337-2.985.691-4.42.362-1.43.824-2.834 1.513-4.045-.564 1.304-.873 2.738-1.084 4.16a26.922 26.922 0 00-.235 4.295c.024 1.426.178 2.834.378 4.217.102.693.251 1.373.372 2.055l.479 2.008-.073.029c3.103 5.777 5.488 12.118 7.81 18.39a464.203 464.203 0 001.644 4.472c-.001-.803.004-1.605.017-2.41.043-3.114.136-6.237.366-9.356.212-3.12.553-6.236 1.03-9.321.513-3.077 1.101-6.139 1.952-9.097-.481 3.07-.897 6.133-1.129 9.216-.266 3.075-.417 6.154-.51 9.232a253.78 253.78 0 00-.066 9.231c.034 2.41.076 4.821.14 7.234 2.692 6.921 5.592 13.664 8.886 20.017.01-1.361.03-2.724.073-4.087.09-3.436.247-6.872.494-10.305.231-3.43.557-6.856.95-10.27.425-3.41.857-6.817 1.447-10.192-.223 3.427-.485 6.84-.64 10.26a493.785 493.785 0 00-.438 10.236c-.098 3.41-.17 6.816-.192 10.219-.003 2.459.006 4.913.034 7.366a127.3 127.3 0 001.995 3.487 90.48 90.48 0 007.716 11.076c-.273-2.997-.349-6.022-.331-9.013.092-5.417.345-10.796.767-16.183.412-5.384 1-10.752 1.734-16.09.778-5.33 1.639-10.642 2.743-15.886-.7 5.334-1.384 10.66-1.865 16.008a369.14 369.14 0 00-1.209 16.038c-.269 5.342-.477 10.708-.475 16.024-.011 3.905.158 7.796.703 11.543.36.411.723.823 1.089 1.229 3.75 4.143 7.605 8.094 11.612 11.78-.466-3.214-.767-6.467-.973-9.724-.281-4.988-.307-10.002-.14-15.004.16-5.002.511-9.996 1-14.97.53-4.968 1.122-9.925 1.924-14.842-.391 4.975-.797 9.937-1.03 14.905-.269 4.962-.439 9.924-.475 14.87-.027 4.944.065 9.88.414 14.763.266 4.03.73 8.017 1.413 11.912a105.357 105.357 0 0012.466 9.401c1.006.617 2.02 1.229 3.038 1.827-.765-3.35-1.33-6.773-1.778-10.215-.622-4.724-.948-9.514-1.146-14.3a222.52 222.52 0 01-.067-14.4c.14-4.801.36-9.6.755-14.386-.062 4.791-.113 9.577-.017 14.348.098 4.769.252 9.53.572 14.256a182.71 182.71 0 001.433 14.048c.584 4.043 1.364 8.017 2.37 11.862.726.401 1.454.795 2.19 1.169 2.503 1.292 5.055 2.464 7.64 3.613.093.042.154.167.14.302-.02.159-.133.274-.254.258" fill="#AB52A4" fill-opacity=".228"/></g><g fill-rule="nonzero"><path d="M10.62 30.902c2.107 12.299 5.339 24.529 11.195 35.23 5.856 10.701 14.556 19.826 25.218 23.94-4.342.42-8.51-1.773-12.812-2.548-4.301-.776-9.687.663-10.975 5.28-.48 1.71-.288 3.564.068 5.31 2.026 9.955 9.2 17.881 17.432 22.444 8.232 4.56 17.498 6.22 26.632 7.48-6.204 3.532-14.654 2.56-19.13 8.488-4.543 6.015-1.756 15.67 3.519 20.897 4.044 4.015 9.186 6.369 14.299 8.392 36.882 14.6 115.38 1.902 115.38 1.902s-9.946-79.478-18.697-93.124c-3.307-5.15-8.601-10.202-14.08-8.438-6.012 1.94-7.652 10.36-8.235 17.27-4.792-18.427-11.58-37.266-24.982-49.389-4.821-4.366-11.757-7.737-17.08-4.158-5.545 3.73-5.805 12.389-5.41 19.565-7.409-19.072-22.658-34.196-40.578-40.24C35.439 3.49 16.96 5.652-.003 0c7.293 7.776 8.732 19.882 10.62 30.902" fill="url(#d)" transform="rotate(6 -611.374 528.144)"/><path d="M193.354 248.646c-4.088-.625-8.131-1.638-12.106-2.98l-1.469-.145a365.502 365.502 0 01-20.204-2.622 368.357 368.357 0 01-20.061-3.648c-6.648-1.461-13.285-3.012-19.837-4.984-1.648-.434-3.27-1.016-4.9-1.539-1.63-.525-3.257-1.066-4.865-1.68-1.61-.612-3.236-1.147-4.83-1.82l-4.76-2.055c6.498 2.174 13.066 3.937 19.678 5.46 6.608 1.549 13.262 2.834 19.922 4.04 6.659 1.24 13.355 2.236 20.045 3.254a981.4 981.4 0 0011.149 1.525c-6.646-3.303-13.016-7.526-18.962-12.51-.277-.23-.549-.47-.826-.702a257.987 257.987 0 01-8.456-2.139c-4.466-1.2-8.92-2.465-13.348-3.85-4.434-1.345-8.839-2.838-13.223-4.407-4.371-1.613-8.733-3.268-13.033-5.132 4.46 1.233 8.881 2.596 13.35 3.745a921.967 921.967 0 0013.38 3.534l13.411 3.33c1.094.254 2.19.515 3.285.774a129.266 129.266 0 01-11.789-12.76c-2.472-3.074-4.78-6.347-6.96-9.753a64.542 64.542 0 00-3.017-2.083c-4.46-2.864-9.047-5.53-13.642-8.111a320.433 320.433 0 00-13.977-7.296c-4.684-2.394-9.43-4.692-13.898-7.676 4.697 2.369 9.49 4.37 14.322 6.306 4.816 1.978 9.61 4.11 14.314 6.496a189.126 189.126 0 0112.58 6.9 168.053 168.053 0 01-3.755-6.858 183.145 183.145 0 01-3.574-7.325c-1.823-2.15-3.754-4.237-5.685-6.27-3.023-3.2-6.1-6.334-9.183-9.462l-18.555-18.751c3.416 2.552 6.708 5.34 10.026 8.089a332.63 332.63 0 019.733 8.642c3.2 2.962 6.363 5.992 9.464 9.138.261.268.516.552.773.82-3.115-7.482-5.874-15.195-8.426-22.995l-5.04-8.36a148.486 148.486 0 00-6.43-9.846c-2.258-3.145-4.649-6.145-7.126-9.043-2.44-2.96-5.021-5.72-7.54-8.605 2.865 2.298 5.607 4.819 8.334 7.391 2.687 2.633 5.285 5.44 7.715 8.496 2.443 3.03 4.679 6.329 6.838 9.67-.236-.773-.472-1.544-.705-2.315-2.647-8.721-5.271-17.418-8.9-25.364-.072-.153-.148-.301-.218-.454l-.301.114-.109-.968c-3.516-7.386-8.084-14.011-14.056-18.215-.13-.093-.182-.31-.11-.496.076-.194.255-.28.4-.193 3.314 1.99 6.344 4.723 9.007 7.956 1.585 1.936 3.031 4.056 4.38 6.274-.005-.113-.014-.227-.016-.343-.05-2.012-.026-4.032.176-6.04.2-2.006.52-3.998 1.029-5.916.518-1.909 1.17-3.783 2.12-5.392-.786 1.737-1.233 3.654-1.549 5.557-.305 1.913-.42 3.846-.417 5.758 0 1.914.171 3.807.407 5.668.12.931.303 1.847.448 2.765l.594 2.706-.099.037c4.015 7.823 7.056 16.387 10.016 24.858.689 2.02 1.385 4.031 2.093 6.038.017-1.077.043-2.154.08-3.233.13-4.179.33-8.366.712-12.547.357-4.18.887-8.354 1.6-12.484.759-4.116 1.619-8.212 2.828-12.162-.718 4.109-1.346 8.21-1.73 12.341-.43 4.12-.704 8.248-.901 12.377a341.546 341.546 0 00-.309 12.385c-.011 3.235-.012 6.47.016 9.71 3.438 9.35 7.16 18.464 11.415 27.065.047-1.827.106-3.654.196-5.483.202-4.609.493-9.216.906-13.817.39-4.597.907-9.187 1.515-13.759.65-4.566 1.308-9.126 2.178-13.642-.38 4.594-.812 9.168-1.1 13.751a664.63 664.63 0 00-.83 13.727c-.212 4.573-.39 9.143-.5 13.708-.062 3.3-.108 6.592-.13 9.885a170.864 170.864 0 002.588 4.725 121.427 121.427 0 0010.063 15.04c-.295-4.027-.325-8.089-.23-12.102.252-7.266.718-14.478 1.41-21.698a361.22 361.22 0 012.703-21.55c1.168-7.134 2.446-14.243 4.048-21.254-1.063 7.142-2.105 14.273-2.875 21.437a496.888 496.888 0 00-1.999 21.495c-.487 7.16-.893 14.357-1.016 21.49-.108 5.24.026 10.465.666 15.506.473.56.948 1.121 1.428 1.673 4.92 5.647 9.985 11.038 15.26 16.075-.549-4.323-.874-8.695-1.072-13.071-.258-6.7-.174-13.429.168-20.137.334-6.708.922-13.4 1.695-20.065.826-6.654 1.737-13.292 2.927-19.87-.642 6.665-1.303 13.314-1.732 19.976a426.866 426.866 0 00-.99 19.944c-.153 6.632-.147 13.257.204 19.818a150.23 150.23 0 001.609 16.017 140.965 140.965 0 0016.458 12.902c1.332.852 2.673 1.696 4.022 2.522-.945-4.513-1.62-9.12-2.138-13.749-.72-6.354-1.041-12.787-1.193-19.217a299.538 299.538 0 01.252-19.323c.3-6.438.71-12.873 1.353-19.286-.198 6.428-.38 12.848-.365 19.252.02 6.402.111 12.794.428 19.143.29 6.352.815 12.661 1.583 18.884.686 5.438 1.636 10.789 2.89 15.971.962.556 1.927 1.101 2.903 1.619 3.318 1.792 6.706 3.423 10.137 5.025.125.059.204.227.18.408-.028.212-.183.365-.345.34" fill="#5F76DC" fill-opacity=".349"/></g><g fill-rule="nonzero"><path d="M1.254 5.344C-1.252 9.947.322 16.582 3.13 22.4c2.846 5.824 6.874 11.159 10.46 16.56 8.004-2.51 17.959-1.047 26.918 4.676-7.65-2.393-15.057-1.272-20.632 2.438C27.515 55.901 28.6 68.395 31.95 79.19c3.24 10.997 6.197 15.76 11.37 25.747 7.548-3.091 20.583.214 30.528 11.15-8.03-4.11-16.203-3.259-20.411-2.407-1.79.363-2.862.724-2.9.705.048.12.736 6.622.84 7.918 1.318 11.304 1.487 22.57 4.431 33.236 1.937 7.082 5.012 13.083 3.9 20.762 10.21 1.796 18.216 9.597 21.263 17.914-16.889-10.036-24.514-8.802-27.38-7.568-.964.414-1.391.828-1.45.813.092.49.407 10.256.595 14.14.711 8.807 2.107 16.117 2.464 18.595 1.63 9.635 2.715 25.312 6.913 33.6 2.446 4.609 2.529 2.474 6.86-1.034 4.647-3.807 9.753-6.155 14.423-9.874 10.132-7.886 21.576-22.692 28.26-36.862-6.069 2.848-20.09 5.158-26.052 4.564 6.192-.708 30.41-20.85 30.133-21.622 0 .003.465-3.507.47-7.275-.033-19.897-8.29-36.511-11.263-54.607-1.722-10.258-1.753-20.553-3.515-30.926-2.817-16.862-10.666-33.625-21.468-45.826-.759-.92-5.383-5.615-5.4-5.59.129.105-5.692 15.835-9.828 21.462 1.17-8.64-1.806-25.5 2.135-31.345C56.33 22.314 46.986 14.81 33.624 7.09 27.613 3.68 21.227.848 15.18.158A22.403 22.403 0 0012.558 0C7.555 0 3.198 1.777 1.252 5.344" transform="rotate(-17 97.205 -111.01)" fill="url(#e)"/><path d="M110.541 56.841c-1.28-2.807-2.577-5.627-3.807-8.456-2.486-5.654-4.979-11.331-7.342-16.995 1.95 5.638 4.07 11.315 6.218 17.005 1.062 2.847 2.2 5.698 3.332 8.552a215.314 215.314 0 001.952 4.721 165.92 165.92 0 00-2.434-2.037 181.701 181.701 0 00-11.103-8.325A1838.974 1838.974 0 0086.65 37.524c-3.774-4.822-7.658-9.633-11.45-14.481 3.425 4.947 6.985 9.876 10.461 14.828 2.464 3.506 4.905 7.014 7.35 10.522a175.375 175.375 0 00-15.451-8.967l.024-.014a556.273 556.273 0 01-8.716-9.05c-2.878-3.062-5.767-6.147-8.534-9.291 2.403 3.265 4.973 6.496 7.559 9.721A426.114 426.114 0 0073.2 37.26a168.64 168.64 0 00-25.454-9.768l-.106.478a168.172 168.172 0 0125.285 10.533c-2.604.085-5.142.321-7.595.733-3.575.603-7.004 1.504-10.16 2.769 3.373-.936 6.96-1.48 10.64-1.714 3.62-.231 7.355-.113 11.123.344a175.419 175.419 0 0115.394 9.52 49.316 49.316 0 00-3.213-.334c-2.592-.213-5.118-.186-7.585-.034-2.467.157-4.85.518-7.153 1.023-2.293.516-4.51 1.18-6.555 2.087 2.15-.742 4.452-1.229 6.81-1.56a48.877 48.877 0 017.28-.462c2.487.036 5.012.2 7.575.598 2.186.303 4.4.788 6.611 1.363 3.79 2.77 7.475 5.678 11.034 8.73.75.637 1.489 1.291 2.23 1.942a48.585 48.585 0 00-4.235-.514c-2.694-.192-5.338-.228-7.897-.045-5.121.341-9.993 1.298-14.503 2.849 4.685-1.209 9.689-1.785 14.871-1.738 2.589.012 5.24.247 7.909.633 2.267.334 4.563.859 6.857 1.514a190.046 190.046 0 0112.374 12.481c-4.123-.37-8.036-.117-11.773.489-4.609.775-8.98 2.054-13.066 3.8 4.262-1.402 8.785-2.299 13.49-2.668 4.353-.319 8.902-.15 13.539.852a195.764 195.764 0 0111.064 13.91c-4.14-.435-8.085-.232-11.888.289a64.65 64.65 0 00-13.597 3.512 63.772 63.772 0 0113.971-2.355c4.29-.213 8.734-.005 13.256 1.003a200.203 200.203 0 0110.478 16.62c.288.516.565 1.036.849 1.553-3.402-.959-6.722-1.405-9.962-1.58a57.657 57.657 0 00-12.164.694c4.02-.278 8.159-.11 12.36.499 3.71.564 7.493 1.5 11.225 3.085a202.689 202.689 0 018.255 17.618c-3.077-.989-6.1-1.517-9.075-1.83a60.427 60.427 0 00-11.182-.055c3.716.06 7.498.479 11.307 1.268 3.344.72 6.728 1.733 10.036 3.306a196.77 196.77 0 012.513 6.676 233.379 233.379 0 014.543 14.24c-3.465-1.794-6.947-3.017-10.406-3.954a67.647 67.647 0 00-13.126-2.108 67.587 67.587 0 0113.09 3.308c3.8 1.398 7.607 3.171 11.242 5.612a235.308 235.308 0 013.777 16.132 199.717 199.717 0 012.674 17.169c.213 1.786.388 3.576.548 5.372l-.198-.067c-2.777-.935-5.518-2.235-8.222-3.747-2.702-1.533-5.354-3.334-8.042-5.167 2.313 2.66 4.864 5.01 7.564 6.974 2.698 1.977 5.553 3.506 8.45 4.576.227.072.453.146.68.22.233 3.091.403 6.195.52 9.313.123 3.68.141 7.372.078 11.077-.21-.177-.425-.344-.628-.542-2.942-2.599-5.6-5.934-8.117-9.459-2.515-3.54-4.895-7.293-7.356-10.963 1.865 4.23 3.959 8.38 6.345 12.303 2.371 3.933 5.1 7.598 8.211 10.471.386.368.786.695 1.19 1.017.104.071.196.149.285.226a236.363 236.363 0 01-1.663 21.539c.149.044.297.09.445.135 1.656-6.995 2.814-14.083 3.536-21.2.006-.007.017-.012.023-.017.258-.19.413-.336.618-.507.392-.325.78-.665 1.155-1.03 1.51-1.447 2.964-3.035 4.28-4.873 2.66-3.608 4.893-7.982 6.421-12.95-2.167 4.222-4.604 7.993-7.323 11.174-1.368 1.576-2.776 3.062-4.266 4.337-.2.173-.402.342-.604.514.3-3.666.499-7.335.572-11.001.083-3.356.04-6.71-.08-10.059.097-.06.2-.115.297-.182 1.281-.849 2.55-1.744 3.739-2.84 2.392-2.146 4.592-4.812 6.273-8.194a45.266 45.266 0 01-7.036 6.203c-1.119.762-2.24 1.504-3.392 2.16-.084-1.646-.181-3.29-.302-4.932-.33-4.105-.792-8.192-1.37-12.26a171.09 171.09 0 004.08-4.509c1.644-1.982 3.286-3.961 4.843-6.089a119.141 119.141 0 004.557-6.552c1.454-2.287 2.877-4.618 4.187-7.117-1.65 1.939-3.257 3.95-4.9 5.904a476.2 476.2 0 01-4.917 5.877c-1.665 1.915-3.305 3.878-5.002 5.735-1.09 1.244-2.207 2.432-3.318 3.633-.12-.762-.234-1.528-.361-2.29a182.093 182.093 0 00-3.86-17.246c1.696-3.853 3.599-7.548 5.547-11.181 2.366-4.34 4.772-8.644 7.272-12.812-2.776 3.767-5.45 7.71-8.082 11.735-1.926 2.997-3.822 6.047-5.59 9.303a183.187 183.187 0 00-4.693-13.947c-.97-2.539-1.996-5.052-3.064-7.545 1.017-3.35 2.227-6.597 3.486-9.788 1.576-3.922 3.212-7.804 4.947-11.578-2.045 3.414-3.983 6.974-5.86 10.619-1.313 2.602-2.59 5.26-3.748 8.064a207.853 207.853 0 00-8.58-17.125c.391-4.365 1.057-8.644 1.799-12.869.859-4.717 1.775-9.41 2.82-14.002-1.406 4.3-2.662 8.737-3.853 13.246-.901 3.5-1.742 7.061-2.397 10.782-.278-.479-.55-.962-.83-1.438a203.276 203.276 0 00-10.659-16.244c-.026-5.268.298-10.461.692-15.615.453-5.465.943-10.924 1.568-16.297-1.02 5.118-1.882 10.357-2.686 15.652-.64 4.44-1.21 8.938-1.523 13.608a198.963 198.963 0 00-11.255-13.67c-1.146-5.494-1.917-11.006-2.6-16.486-.665-5.55-1.292-11.103-1.766-16.594.056 5.32.292 10.739.597 16.2.285 4.66.662 9.372 1.31 14.194a192.22 192.22 0 00-12.705-12.375c-1.266-2.558-2.526-5.136-3.716-7.738" fill="#62942A" fill-opacity=".315"/><path d="M174.657 126.859a61.745 61.745 0 00-.644 2.854c-.19.998-.383 2.008-.475 3.226.774-.264 1.359-.857 1.853-1.575.485-.73.861-1.62 1.116-2.625.258-1.01.402-2.136.409-3.353-.009-1.23-.119-2.532-.501-3.958-.44.865-.723 1.783-1.01 2.683-.272.91-.519 1.821-.748 2.748M176.718 131.27a173.846 173.846 0 01-1.425 3.013c-.474 1.03-.975 2.048-1.416 3.251 1.049-.208 1.926-.782 2.706-1.51.772-.742 1.426-1.674 1.945-2.758.519-1.082.904-2.317 1.122-3.672.206-1.362.278-2.83.034-4.444-.607 1.02-1.072 2.071-1.56 3.086-.459 1.018-.928 2.03-1.406 3.033" fill="#fff"/></g></g></g><g transform="matrix(-1 0 0 1 840 326)"><mask id="g" fill="#fff"><use xlink:href="#f"/></mask><g mask="url(#g)"><g fill-rule="nonzero"><path d="M5.73 15.224c1.038 6.055 2.631 12.077 5.517 17.346 2.886 5.269 7.173 9.762 12.428 11.787-2.14.207-4.194-.873-6.314-1.255-2.12-.381-4.773.327-5.408 2.6-.237.842-.142 1.755.033 2.614.999 4.902 4.534 8.805 8.59 11.051 4.058 2.245 8.624 3.062 13.125 3.683-3.058 1.74-7.222 1.26-9.428 4.179-2.238 2.962-.865 7.715 1.735 10.289 1.993 1.977 4.527 3.136 7.046 4.132 18.176 7.188 56.862.937 56.862.937s-4.9-39.132-9.214-45.851c-1.63-2.536-4.239-5.024-6.938-4.155-2.963.955-3.771 5.1-4.059 8.503C67.344 32.012 64 22.736 57.393 16.767c-2.376-2.15-5.794-3.81-8.416-2.048-2.733 1.837-2.862 6.1-2.667 9.633C42.66 14.962 35.144 7.515 26.312 4.54 17.962 1.727 8.855 2.79.495.008 4.09 3.837 4.8 9.798 5.73 15.223" fill="url(#h)" opacity=".779" transform="rotate(5 -852.887 175.697)"/><path d="M83.854 163.365a35.465 35.465 0 01-5.99-1.363l-.725-.059a180.285 180.285 0 01-9.978-1.117 181.666 181.666 0 01-9.916-1.625c-3.288-.663-6.572-1.37-9.818-2.284-.816-.2-1.62-.472-2.427-.715a46.923 46.923 0 01-2.412-.786c-.799-.288-1.604-.537-2.395-.855l-2.364-.97c3.22 1.014 6.473 1.826 9.744 2.52 3.269.705 6.558 1.28 9.85 1.817 3.292.554 6.6.987 9.905 1.43 1.834.229 3.67.45 5.507.656-3.303-1.57-6.479-3.593-9.45-5.997-.14-.11-.275-.226-.414-.338a127.252 127.252 0 01-4.185-.98 168.33 168.33 0 01-6.61-1.781 140.403 140.403 0 01-6.554-2.057c-2.167-.757-4.331-1.534-6.465-2.415 2.208.569 4.398 1.202 6.61 1.73 2.205.56 4.413 1.098 6.623 1.624l6.637 1.525c.541.116 1.084.235 1.625.353a63.686 63.686 0 01-5.919-6.18 54.807 54.807 0 01-3.513-4.742c-.493-.35-.997-.682-1.505-1-2.222-1.372-4.505-2.645-6.792-3.877a157.95 157.95 0 00-6.95-3.472c-2.328-1.138-4.686-2.229-6.914-3.66 2.335 1.127 4.714 2.07 7.112 2.982 2.39.933 4.77 1.942 7.109 3.076a93.296 93.296 0 016.258 3.29 82.695 82.695 0 01-3.734-6.92 74.111 74.111 0 00-2.855-3.038 310.93 310.93 0 00-4.606-4.58l-9.305-9.072c1.705 1.227 3.351 2.572 5.01 3.896a163.877 163.877 0 014.87 4.171 141.208 141.208 0 014.743 4.418c.13.13.258.267.387.397-1.6-3.657-3.025-7.43-4.35-11.248l-2.556-4.073a73.095 73.095 0 00-3.254-4.792 66.928 66.928 0 00-3.589-4.39c-1.227-1.436-2.523-2.774-3.789-4.172 1.431 1.107 2.804 2.324 4.17 3.567a45.531 45.531 0 013.875 4.117c1.23 1.47 2.36 3.075 3.453 4.702l-.368-1.134c-1.38-4.27-2.748-8.53-4.605-12.41-.036-.075-.075-.147-.11-.222l-.148.059-.062-.476c-1.797-3.606-4.104-6.828-7.083-8.846-.065-.045-.092-.152-.059-.244.036-.096.124-.14.195-.098 1.65.95 3.167 2.27 4.507 3.84.798.94 1.53 1.97 2.213 3.05-.004-.055-.009-.111-.01-.168-.043-.99-.049-1.985.033-2.975.081-.99.223-1.972.456-2.921.239-.944.544-1.873.998-2.673-.372.862-.576 1.81-.715 2.75a17.823 17.823 0 00-.156 2.837c.017.943.118 1.873.25 2.787.067.458.165.907.245 1.358l.315 1.327-.048.019c2.046 3.817 3.618 8.007 5.15 12.152.357.988.717 1.973 1.083 2.954 0-.53.003-1.06.012-1.592.028-2.058.09-4.121.242-6.183.14-2.061.365-4.12.68-6.16.34-2.032.727-4.056 1.29-6.01-.319 2.028-.593 4.053-.746 6.09a108.48 108.48 0 00-.338 6.1c-.05 2.034-.069 4.067-.045 6.1.023 1.592.05 3.185.092 4.78 1.775 4.573 3.687 9.028 5.858 13.226.008-.9.021-1.8.05-2.701.06-2.27.163-4.542.326-6.81.153-2.267.368-4.53.628-6.787.28-2.253.566-4.504.955-6.734-.147 2.265-.32 4.52-.423 6.779a326.936 326.936 0 00-.29 6.764 303.932 303.932 0 00-.128 6.753c-.002 1.625.004 3.246.022 4.868.429.777.866 1.547 1.315 2.304a59.784 59.784 0 005.089 7.318c-.18-1.98-.23-3.98-.218-5.956.062-3.58.229-7.134.508-10.694.272-3.558.66-7.105 1.145-10.632.514-3.522 1.082-7.032 1.811-10.498-.462 3.525-.914 7.045-1.232 10.578-.343 3.53-.609 7.064-.799 10.599-.178 3.53-.316 7.076-.315 10.589-.008 2.58.103 5.152.462 7.627.238.272.477.544.719.812 2.473 2.738 5.015 5.348 7.657 7.783a79.992 79.992 0 01-.64-6.425c-.185-3.297-.202-6.61-.092-9.915.107-3.305.339-6.604.662-9.892.35-3.283.74-6.558 1.27-9.807-.258 3.287-.527 6.566-.68 9.849-.178 3.279-.291 6.557-.315 9.826-.019 3.267.041 6.528.271 9.755.175 2.663.481 5.298.93 7.871a69.471 69.471 0 008.222 6.211c.663.408 1.332.812 2.003 1.207-.504-2.214-.877-4.476-1.172-6.75-.41-3.122-.623-6.287-.754-9.45-.113-3.168-.134-6.34-.043-9.515.093-3.172.24-6.344.5-9.506-.041 3.166-.076 6.328-.013 9.48.065 3.152.166 6.298.376 9.42.198 3.126.511 6.227.944 9.284a71.354 71.354 0 001.562 7.838c.478.265.958.525 1.444.772 1.65.854 3.333 1.627 5.038 2.387.062.028.102.11.092.199-.012.105-.087.181-.167.17" fill="#AB52A4" fill-opacity=".228"/></g><g fill-rule="nonzero"><path d="M7.004 20.42c1.39 8.127 3.521 16.209 7.384 23.28 3.863 7.071 9.6 13.101 16.633 15.82-2.864.277-5.613-1.172-8.45-1.684s-6.389.439-7.239 3.49c-.317 1.129-.19 2.355.045 3.508 1.336 6.579 6.068 11.816 11.497 14.832 5.43 3.013 11.541 4.11 17.565 4.943-4.092 2.333-9.665 1.69-12.617 5.608-2.996 3.975-1.158 10.354 2.321 13.809 2.668 2.653 6.059 4.209 9.431 5.546 24.326 9.647 76.101 1.256 76.101 1.256s-6.56-52.519-12.332-61.537c-2.18-3.403-5.673-6.741-9.286-5.575-3.965 1.282-5.047 6.845-5.432 11.412-3.16-12.176-7.637-24.625-16.477-32.636-3.18-2.886-7.754-5.113-11.264-2.748-3.657 2.465-3.83 8.186-3.568 12.929-4.887-12.603-14.945-22.597-26.764-26.59C23.376 2.307 11.188 3.735 0 0 4.81 5.14 5.76 13.138 7.004 20.42" fill="url(#d)" transform="rotate(6 -409.643 349.254)"/><path d="M127.566 164.874a47.34 47.34 0 01-7.985-1.967l-.968-.097a240.601 240.601 0 01-13.325-1.73 242.416 242.416 0 01-13.231-2.407c-4.385-.965-8.762-1.989-13.084-3.291-1.087-.287-2.157-.67-3.232-1.016a62.66 62.66 0 01-3.208-1.11c-1.062-.404-2.134-.757-3.185-1.202l-3.14-1.357c4.285 1.435 8.618 2.6 12.978 3.606 4.358 1.021 8.747 1.87 13.14 2.666 4.391.819 8.807 1.476 13.22 2.147 2.448.349 4.9.687 7.353 1.007-4.383-2.182-8.584-4.971-12.505-8.265-.183-.15-.362-.31-.545-.463a169.894 169.894 0 01-5.576-1.412 224.816 224.816 0 01-8.804-2.542 187.614 187.614 0 01-8.72-2.911c-2.884-1.065-5.76-2.158-8.596-3.39 2.942.815 5.858 1.715 8.805 2.473 2.938.803 5.88 1.576 8.824 2.334l8.845 2.198c.722.168 1.445.34 2.167.512a85.278 85.278 0 01-7.774-8.43c-1.63-2.032-3.152-4.194-4.589-6.444a42.564 42.564 0 00-1.99-1.376c-2.94-1.892-5.966-3.653-8.996-5.359a211.185 211.185 0 00-9.218-4.818c-3.089-1.582-6.219-3.1-9.166-5.07 3.098 1.564 6.26 2.885 9.446 4.164 3.176 1.307 6.337 2.715 9.44 4.291 2.807 1.401 5.564 2.924 8.297 4.558a110.956 110.956 0 01-2.476-4.532 120.954 120.954 0 01-2.356-4.84c-1.203-1.42-2.476-2.799-3.749-4.141a416.324 416.324 0 00-6.055-6.252L55.372 98.02c2.253 1.687 4.424 3.529 6.611 5.344a219.54 219.54 0 016.419 5.71 188.949 188.949 0 016.241 6.037c.172.177.34.364.51.541-2.054-4.944-3.872-10.04-5.555-15.194l-3.322-5.524a98.103 98.103 0 00-4.241-6.505 89.718 89.718 0 00-4.699-5.974c-1.608-1.955-3.31-3.78-4.971-5.685 1.889 1.518 3.697 3.183 5.495 4.883 1.772 1.739 3.486 3.594 5.088 5.613 1.61 2.002 3.085 4.181 4.509 6.39-.156-.512-.312-1.021-.465-1.53-1.745-5.764-3.475-11.51-5.868-16.76-.046-.101-.097-.199-.143-.3l-.199.076-.071-.64c-2.318-4.88-5.33-9.257-9.268-12.033-.086-.062-.12-.206-.073-.329.05-.128.169-.184.264-.127 2.186 1.314 4.184 3.12 5.94 5.256 1.045 1.28 1.999 2.68 2.888 4.145-.003-.075-.009-.15-.01-.226-.034-1.33-.017-2.665.116-3.992.132-1.325.344-2.641.68-3.909.342-1.261.772-2.5 1.399-3.563-.519 1.148-.814 2.414-1.022 3.672a23.988 23.988 0 00-.276 3.805c-.001 1.265.112 2.516.267 3.745.08.616.2 1.22.296 1.827l.39 1.788-.064.025c2.647 5.169 4.651 10.827 6.602 16.425.454 1.334.913 2.663 1.38 3.99.011-.713.029-1.424.053-2.137.087-2.761.218-5.528.471-8.291.237-2.763.587-5.52 1.057-8.25.501-2.72 1.069-5.426 1.867-8.036-.474 2.715-.889 5.425-1.142 8.155-.284 2.722-.466 5.45-.596 8.178-.115 2.728-.19 5.455-.206 8.184-.008 2.138-.009 4.276.01 6.416 2.266 6.178 4.72 12.2 7.525 17.883.031-1.207.07-2.415.13-3.623.133-3.046.326-6.09.6-9.13.257-3.038.599-6.072 1-9.093.43-3.017.865-6.03 1.439-9.015-.252 3.036-.537 6.059-.727 9.087-.22 3.026-.394 6.05-.55 9.07-.14 3.022-.258 6.042-.331 9.059-.042 2.18-.073 4.356-.087 6.532a112.88 112.88 0 001.706 3.122 80.174 80.174 0 006.635 9.937c-.194-2.662-.213-5.346-.15-7.998.168-4.8.476-9.567.934-14.338a239.172 239.172 0 011.785-14.24c.771-4.715 1.615-9.412 2.672-14.046-.702 4.72-1.39 9.432-1.899 14.167-.544 4.729-.983 9.464-1.32 14.203-.323 4.732-.592 9.487-.674 14.2-.072 3.463.016 6.916.437 10.247.313.37.625.74.942 1.105 3.244 3.73 6.585 7.292 10.063 10.62-.36-2.856-.575-5.745-.705-8.636-.169-4.428-.113-8.874.113-13.306.222-4.433.61-8.855 1.121-13.259.546-4.397 1.147-8.783 1.933-13.13-.424 4.404-.861 8.798-1.145 13.2a282.581 282.581 0 00-.655 13.179c-.102 4.382-.099 8.76.132 13.095.17 3.577.518 7.12 1.058 10.585a92.963 92.963 0 0010.854 8.523c.878.562 1.763 1.12 2.652 1.666-.623-2.982-1.067-6.026-1.408-9.085-.474-4.199-.685-8.45-.785-12.697-.076-4.254-.029-8.512.169-12.77.2-4.254.47-8.506.895-12.744-.131 4.248-.252 8.49-.243 12.722.012 4.23.072 8.454.28 12.65.19 4.198.535 8.367 1.041 12.478a95.965 95.965 0 001.905 10.554c.634.367 1.27.727 1.914 1.07 2.188 1.183 4.422 2.26 6.685 3.318.082.039.134.15.119.27-.02.14-.122.241-.228.225" fill="#5F76DC" fill-opacity=".349"/></g><g fill-rule="nonzero"><path d="M.827 3.531C-.826 6.573.212 10.957 2.064 14.802c1.877 3.849 4.534 7.374 6.9 10.943 5.278-1.659 11.844-.693 17.753 3.09-5.046-1.582-9.93-.841-13.608 1.61 5.039 6.495 5.755 14.75 7.964 21.883 2.137 7.267 4.088 10.414 7.5 17.014 4.977-2.043 13.575.14 20.134 7.367-5.296-2.716-10.686-2.153-13.462-1.59-1.18.24-1.887.478-1.913.465.032.08.486 4.377.554 5.233.87 7.47.981 14.915 2.923 21.963 1.278 4.68 3.306 8.645 2.572 13.72 6.734 1.186 12.015 6.341 14.025 11.838-11.14-6.632-16.168-5.817-18.058-5.001-.636.274-.918.547-.957.537.06.323.269 6.778.393 9.344.469 5.82 1.389 10.65 1.625 12.288 1.075 6.366 1.79 16.726 4.559 22.203 1.614 3.046 1.668 1.635 4.525-.683 3.065-2.515 6.433-4.067 9.513-6.525 6.682-5.211 14.23-14.995 18.639-24.358-4.003 1.882-13.251 3.409-17.182 3.016 4.084-.468 20.057-13.777 19.875-14.288 0 .002.306-2.318.309-4.808-.022-13.148-5.467-24.127-7.428-36.084-1.135-6.778-1.156-13.58-2.318-20.436-1.858-11.142-7.035-22.219-14.159-30.282-.5-.608-3.55-3.71-3.562-3.693.085.07-3.754 10.464-6.482 14.182.772-5.71-1.191-16.85 1.408-20.713-6.952-8.29-13.114-13.248-21.927-18.35C18.215 2.433 14.003.562 10.013.107A14.749 14.749 0 008.285.001c-3.3 0-6.173 1.174-7.457 3.531" transform="rotate(-17 66.084 -72.938)" fill="url(#i)"/><path d="M72.933 38.14c-.846-1.855-1.703-3.718-2.515-5.588-1.642-3.737-3.288-7.488-4.849-11.23 1.288 3.724 2.689 7.476 4.108 11.236.701 1.882 1.452 3.765 2.2 5.652.413 1.039.848 2.079 1.29 3.12a109.79 109.79 0 00-1.607-1.348 120.064 120.064 0 00-7.327-5.504 1219.666 1219.666 0 00-7.067-9.11c-2.491-3.187-5.055-6.367-7.558-9.571 2.26 3.27 4.611 6.528 6.906 9.8 1.626 2.317 3.238 4.636 4.852 6.954a115.796 115.796 0 00-10.196-5.93.371.371 0 00.016-.009 368.272 368.272 0 01-5.753-5.982c-1.899-2.024-3.806-4.063-5.632-6.142 1.586 2.158 3.282 4.294 4.99 6.426a282.057 282.057 0 003.502 4.274A111.291 111.291 0 0031.5 18.726l-.07.315a111.071 111.071 0 0116.684 6.968c-1.717.055-3.392.21-5.01.482-2.358.397-4.62.99-6.702 1.825 2.226-.617 4.592-.975 7.02-1.128a39.846 39.846 0 017.336.231c3.501 1.926 6.89 4.029 10.158 6.295a32.514 32.514 0 00-2.119-.222c-1.71-.141-3.377-.124-5.004-.025-1.627.103-3.199.341-4.718.674-1.512.34-2.974.778-4.323 1.376 1.418-.49 2.936-.81 4.492-1.028a32.185 32.185 0 014.802-.303c1.64.025 3.306.134 4.997.398 1.442.2 2.902.522 4.361.903 2.501 1.83 4.934 3.754 7.282 5.772.495.42.983.853 1.471 1.283a32.019 32.019 0 00-2.793-.34c-1.777-.129-3.521-.153-5.21-.033-3.378.223-6.59.854-9.565 1.877 3.09-.797 6.39-1.176 9.809-1.143 1.707.009 3.456.165 5.217.421 1.496.221 3.01.569 4.524 1.002a125.663 125.663 0 018.167 8.251c-2.72-.246-5.301-.08-7.766.319a37.823 37.823 0 00-8.618 2.506 37.882 37.882 0 018.898-1.758c2.872-.21 5.872-.096 8.932.568a129.535 129.535 0 017.303 9.193c-2.731-.289-5.334-.156-7.842.186a42.559 42.559 0 00-8.968 2.316 41.986 41.986 0 019.215-1.551c2.83-.139 5.762 0 8.745.668a132.482 132.482 0 016.918 10.984c.19.341.373.685.56 1.026-2.244-.634-4.435-.93-6.572-1.047a37.967 37.967 0 00-8.023.455 38.328 38.328 0 018.153.333c2.448.374 4.944.994 7.406 2.043a134.174 134.174 0 015.452 11.643c-2.03-.655-4.025-1.005-5.987-1.212a39.797 39.797 0 00-7.376-.04 39.84 39.84 0 017.459.841c2.206.476 4.439 1.147 6.621 2.188.577 1.46 1.136 2.93 1.66 4.411a154.511 154.511 0 013.002 9.41c-2.286-1.186-4.584-1.995-6.866-2.615a44.57 44.57 0 00-8.66-1.398 44.572 44.572 0 018.637 2.19c2.508.925 5.02 2.098 7.418 3.712.954 3.516 1.79 7.07 2.498 10.66a132.24 132.24 0 011.77 11.344c.14 1.18.257 2.364.363 3.55l-.131-.044c-1.832-.619-3.64-1.479-5.425-2.479-1.783-1.013-3.533-2.204-5.307-3.416a30.247 30.247 0 004.992 4.61 22.864 22.864 0 005.577 3.026l.447.146c.156 2.042.269 4.093.347 6.153.083 2.432.096 4.87.055 7.32-.138-.118-.28-.229-.414-.36-1.941-1.717-3.696-3.922-5.358-6.252-1.66-2.34-3.231-4.82-4.856-7.246 1.232 2.796 2.615 5.539 4.19 8.132 1.565 2.599 3.367 5.021 5.42 6.92.255.244.52.46.786.673.068.047.129.098.188.15a156.288 156.288 0 01-1.09 14.23c.098.028.196.059.293.088a108.275 108.275 0 002.326-14.005c.004-.005.01-.008.015-.011.17-.126.272-.222.408-.335.258-.215.514-.44.761-.68.996-.956 1.954-2.005 2.822-3.218 1.753-2.383 3.225-5.272 4.23-8.554-1.428 2.788-3.034 5.28-4.826 7.38-.902 1.04-1.83 2.022-2.812 2.864l-.399.34c.197-2.423.326-4.847.374-7.269.053-2.217.024-4.432-.057-6.645.064-.04.132-.076.196-.121.845-.56 1.681-1.151 2.466-1.875a17.93 17.93 0 004.134-5.411 29.83 29.83 0 01-4.638 4.095c-.738.504-1.478.993-2.238 1.427-.055-1.088-.12-2.175-.2-3.26a133.72 133.72 0 00-.909-8.1c.906-.975 1.809-1.958 2.69-2.978 1.084-1.308 2.167-2.616 3.193-4.02a78.635 78.635 0 003.004-4.328c.959-1.51 1.896-3.05 2.76-4.701-1.089 1.28-2.148 2.609-3.23 3.9a314.001 314.001 0 01-3.242 3.88c-1.098 1.265-2.18 2.561-3.298 3.788-.719.821-1.455 1.606-2.188 2.4-.079-.505-.154-1.011-.239-1.515a120.55 120.55 0 00-2.552-11.395c1.118-2.545 2.372-4.986 3.655-7.385 1.56-2.867 3.146-5.71 4.793-8.462-1.83 2.488-3.592 5.091-5.327 7.75-1.27 1.98-2.519 3.994-3.684 6.144a121.273 121.273 0 00-3.1-9.215 135.684 135.684 0 00-2.024-4.987c.67-2.213 1.466-4.357 2.296-6.466a170.427 170.427 0 013.259-7.647c-1.348 2.255-2.625 4.606-3.861 7.014-.866 1.718-1.708 3.474-2.47 5.326a137.573 137.573 0 00-5.666-11.317c.256-2.884.694-5.71 1.182-8.502.565-3.115 1.168-6.216 1.856-9.25-.927 2.84-1.754 5.772-2.538 8.75-.593 2.313-1.147 4.665-1.577 7.123-.184-.316-.363-.636-.549-.95a134.544 134.544 0 00-7.036-10.737c-.02-3.48.193-6.911.45-10.316.298-3.611.62-7.218 1.03-10.767-.672 3.38-1.238 6.842-1.767 10.34-.421 2.933-.796 5.905-1 8.99a131.684 131.684 0 00-7.43-9.035c-.757-3.63-1.267-7.272-1.72-10.893-.44-3.667-.856-7.336-1.17-10.964.038 3.515.196 7.095.399 10.703.19 3.079.44 6.192.869 9.379a127.059 127.059 0 00-8.385-8.18 189.053 189.053 0 01-2.455-5.114" fill="#62942A" fill-opacity=".315"/><path d="M115.251 84.423a40.895 40.895 0 00-.424 1.885c-.125.66-.252 1.327-.312 2.132.51-.175.896-.566 1.222-1.04.32-.483.568-1.07.735-1.735.17-.666.265-1.41.268-2.215a10.162 10.162 0 00-.331-2.615c-.29.571-.477 1.178-.666 1.773-.178.6-.34 1.203-.492 1.815M116.612 87.34c-.307.668-.62 1.332-.938 1.99-.313.68-.642 1.353-.933 2.147.691-.137 1.27-.516 1.784-.997.51-.49.94-1.105 1.282-1.821.342-.715.596-1.53.74-2.425.135-.9.182-1.87.02-2.937-.4.673-.706 1.368-1.027 2.039-.303.672-.612 1.34-.927 2.003" fill="#fff"/></g></g></g><g transform="translate(131 81)"><use fill="#000" filter="url(#j)" xlink:href="#k"/><use fill="#F5F7F9" xlink:href="#k"/><g fill-rule="nonzero"><use fill="#000" filter="url(#l)" xlink:href="#m"/><use fill="#FFF" xlink:href="#m"/></g><g transform="translate(20.763 53.545)"><g fill-rule="nonzero"><use fill="#000" filter="url(#n)" xlink:href="#o"/><use fill="#FFF" xlink:href="#o"/></g><g fill-rule="nonzero"><use fill="#000" filter="url(#p)" xlink:href="#q"/><use fill="#FFF" xlink:href="#q"/></g><g fill-rule="nonzero"><use fill="#000" filter="url(#r)" xlink:href="#s"/><use fill="#FFF" xlink:href="#s"/></g><g fill-rule="nonzero"><use fill="#000" filter="url(#t)" xlink:href="#u"/><use fill="#FFF" xlink:href="#u"/></g><g fill-rule="nonzero"><use fill="#000" filter="url(#v)" xlink:href="#w"/><use fill="#FFF" xlink:href="#w"/></g><g fill-rule="nonzero"><use fill="#000" filter="url(#x)" xlink:href="#y"/><use fill="#FFF" xlink:href="#y"/></g><g fill-rule="nonzero"><use fill="#000" filter="url(#z)" xlink:href="#A"/><use fill="#FFF" xlink:href="#A"/></g><g fill-rule="nonzero"><use fill="#000" filter="url(#B)" xlink:href="#C"/><use fill="#FFF" xlink:href="#C"/></g><g fill-rule="nonzero"><use fill="#000" filter="url(#D)" xlink:href="#E"/><use fill="#FFF" xlink:href="#E"/></g><g fill-rule="nonzero"><use fill="#000" filter="url(#F)" xlink:href="#G"/><use fill="#FFF" xlink:href="#G"/></g><g fill-rule="nonzero"><use fill="#000" filter="url(#H)" xlink:href="#I"/><use fill="#FFF" xlink:href="#I"/></g><g fill-rule="nonzero"><use fill="#000" filter="url(#J)" xlink:href="#K"/><use fill="#FFF" xlink:href="#K"/></g><g fill-rule="nonzero"><use fill="#000" filter="url(#L)" xlink:href="#M"/><use fill="#FFF" xlink:href="#M"/></g><rect x="171.12" y="45.13" width="23.505" height="15.043" rx="1.119" fill="#9B59B6" fill-rule="nonzero"/><rect x="22.565" y="114.71" width="23.505" height="15.043" rx="1.119" fill="#E94F44" fill-rule="nonzero"/><rect x="22.565" y="184.28" width="23.505" height="15.043" rx="1.119" fill="#4055AB" fill-rule="nonzero"/><rect x="22.565" y="253.86" width="23.505" height="15.043" rx="1.119" fill="#ECF0F1" fill-rule="nonzero"/><rect x="171.12" y="114.71" width="23.505" height="15.043" rx="1.119" fill="#B8E986" fill-rule="nonzero"/><rect x="171.12" y="184.28" width="23.505" height="15.043" rx="1.119" fill="#08f" fill-rule="nonzero"/><rect x="171.12" y="253.86" width="23.505" height="15.043" rx="1.119" fill="#F1C40F" fill-rule="nonzero"/><rect x="245.39" y="45.13" width="23.505" height="15.043" rx="1.119" fill="#2ECC71" fill-rule="nonzero"/><rect x="96.841" y="114.71" width="23.505" height="15.043" rx="1.119" fill="#E67E22" fill-rule="nonzero"/><rect x="96.841" y="184.28" width="23.505" height="15.043" rx="1.119" fill="#BDC3C7" fill-rule="nonzero"/><rect x="96.841" y="253.86" width="23.505" height="15.043" rx="1.119" fill="#595ECD" fill-rule="nonzero"/><rect x="245.39" y="114.71" width="23.505" height="15.043" rx="1.119" fill="#4A90E2" fill-rule="nonzero"/><rect x="245.39" y="184.28" width="23.505" height="15.043" rx="1.119" fill="#8B572A" fill-rule="nonzero"/><rect x="171.12" y="64.874" width="18.804" height="2.821" rx="1.119" fill="#9B59B6" fill-rule="nonzero"/><rect x="22.565" y="134.45" width="18.804" height="2.821" rx="1.119" fill="#E94F44" fill-rule="nonzero"/><rect x="22.565" y="204.02" width="18.804" height="2.821" rx="1.119" fill="#4055AB" fill-rule="nonzero"/><rect x="22.565" y="273.6" width="18.804" height="2.821" rx="1.119" fill="#ECF0F1" fill-rule="nonzero"/><rect x="171.12" y="134.45" width="18.804" height="2.821" rx="1.119" fill="#B8E986" fill-rule="nonzero"/><rect x="171.12" y="204.02" width="18.804" height="2.821" rx="1.119" fill="#08f" fill-rule="nonzero"/><rect x="171.12" y="273.6" width="18.804" height="2.821" rx="1.119" fill="#F1C40F" fill-rule="nonzero"/><rect x="245.39" y="64.874" width="18.804" height="2.821" rx="1.119" fill="#2ECC71" fill-rule="nonzero"/><rect x="96.841" y="134.45" width="18.804" height="2.821" rx="1.119" fill="#E67E22" fill-rule="nonzero"/><rect x="96.841" y="204.02" width="18.804" height="2.821" rx="1.119" fill="#BDC3C7" fill-rule="nonzero"/><rect x="96.841" y="273.6" width="18.804" height="2.821" rx="1.119" fill="#595ECD" fill-rule="nonzero"/><rect x="245.39" y="134.45" width="18.804" height="2.821" rx="1.119" fill="#4A90E2" fill-rule="nonzero"/><rect x="245.39" y="204.02" width="18.804" height="2.821" rx="1.119" fill="#8B572A" fill-rule="nonzero"/><use fill="#000" filter="url(#N)" xlink:href="#O"/><use fill="#FFF" xlink:href="#O"/><path fill="#FAFBFE" fill-rule="nonzero" stroke="#EAEDF0" stroke-width=".546" d="M301.15 229H573.4v95.98H301.15z"/><path fill="#fff" fill-rule="nonzero" d="M302.07 246.54H573.4v17.53H302.07zM302.07 282.53H573.4v19.666a1.56 1.56 0 01-1.56 1.56H303.63a1.56 1.56 0 01-1.56-1.56V282.53z"/><g fill-rule="nonzero"><use fill="#000" filter="url(#P)" xlink:href="#Q"/><use fill="#FFF" xlink:href="#Q"/></g><path d="M313.71 287.04c-.71 0-1.287.576-1.287 1.287v8.877c0 .71.576 1.287 1.287 1.287h45.792c.71 0 1.287-.576 1.287-1.287v-8.877c0-.71-.576-1.287-1.287-1.287H313.71zM368.24 287.04c-.71 0-1.287.576-1.287 1.287v8.877c0 .71.576 1.287 1.287 1.287h23.643c.71 0 1.287-.576 1.287-1.287v-8.877c0-.71-.576-1.287-1.287-1.287H368.24z" fill="#fff" fill-rule="nonzero" stroke="#E0E5EA" stroke-width=".546"/><path d="M301.13 303.79H573.4v27.972a1.56 1.56 0 01-1.56 1.56H302.69a1.56 1.56 0 01-1.56-1.56V303.79z" fill="#1ABC9C" fill-rule="nonzero"/><g transform="translate(551.9 56.412)" fill="#E94F44"><circle cx="5.537" cy="5.537" r="5.537" fill-opacity=".1" fill-rule="nonzero"/><path stroke="#E74C3C" stroke-linecap="round" stroke-linejoin="round" stroke-width=".546" d="M7.287 4.024L5.79 5.522l1.513 1.513-.271.271-1.513-1.513-1.495 1.494-.243-.243 1.494-1.495-1.506-1.506.27-.27 1.507 1.505 1.498-1.497z"/></g><g transform="translate(551.9 80.858)" fill="#E94F44"><circle cx="5.537" cy="5.537" r="5.537" fill-opacity=".1" fill-rule="nonzero"/><path stroke="#E74C3C" stroke-linecap="round" stroke-linejoin="round" stroke-width=".546" d="M7.287 4.024L5.79 5.522l1.513 1.513-.271.271-1.513-1.513-1.495 1.494-.243-.243 1.494-1.495-1.506-1.506.27-.27 1.507 1.505 1.498-1.497z"/></g><g transform="translate(551.9 104.36)" fill="#E94F44"><circle cx="5.537" cy="5.537" r="5.537" fill-opacity=".1" fill-rule="nonzero"/><path stroke="#E74C3C" stroke-linecap="round" stroke-linejoin="round" stroke-width=".546" d="M7.287 4.024L5.79 5.522l1.513 1.513-.271.271-1.513-1.513-1.495 1.494-.243-.243 1.494-1.495-1.506-1.506.27-.27 1.507 1.505 1.498-1.497z"/></g><g transform="translate(551.9 126.93)" fill="#E94F44"><circle cx="5.537" cy="5.537" r="5.537" fill-opacity=".1" fill-rule="nonzero"/><path stroke="#E74C3C" stroke-linecap="round" stroke-linejoin="round" stroke-width=".546" d="M7.287 4.024L5.79 5.522l1.513 1.513-.271.271-1.513-1.513-1.495 1.494-.243-.243 1.494-1.495-1.506-1.506.27-.27 1.507 1.505 1.498-1.497z"/></g><g transform="translate(551.9 151.37)" fill="#E94F44"><circle cx="5.537" cy="5.537" r="5.537" fill-opacity=".1" fill-rule="nonzero"/><path stroke="#E74C3C" stroke-linecap="round" stroke-linejoin="round" stroke-width=".546" d="M7.287 4.024L5.79 5.522l1.513 1.513-.271.271-1.513-1.513-1.495 1.494-.243-.243 1.494-1.495-1.506-1.506.27-.27 1.507 1.505 1.498-1.497z"/></g><g transform="translate(551.9 268.9)" fill="#E94F44"><circle cx="5.537" cy="5.537" r="5.537" fill-opacity=".1" fill-rule="nonzero"/><path stroke="#E74C3C" stroke-linecap="round" stroke-linejoin="round" stroke-width=".546" d="M7.287 4.024L5.79 5.522l1.513 1.513-.271.271-1.513-1.513-1.495 1.494-.243-.243 1.494-1.495-1.506-1.506.27-.27 1.507 1.505 1.498-1.497z"/></g><path d="M302.07 73.37H573.4M302.07 50.298H573.4M302.07 98.288H573.4M302.07 121.36H573.4M302.07 144.43H573.4M302.07 170.54H573.4" stroke="#ECEEF0" stroke-linecap="square" stroke-width=".546"/><path d="M302.07 247H573.4M302.07 264.54H573.4M302.07 282.99H573.4" stroke="#EAEDF0" stroke-linecap="square" stroke-width=".546"/><g fill-rule="nonzero"><use fill="#000" filter="url(#R)" xlink:href="#S"/><use fill="#FFF" xlink:href="#S"/></g><g fill-rule="nonzero"><use fill="#000" filter="url(#T)" xlink:href="#U"/><use fill="#FFF" xlink:href="#U"/></g><path d="M270.901.273V16.34h16.884c.71 0 1.287-.576 1.287-1.287V1.56c0-.711-.576-1.287-1.287-1.287h-16.884zM270.875.273V16.34H253.99c-.711 0-1.288-.576-1.288-1.287V1.56c0-.711.577-1.287 1.288-1.287h16.884z" fill="#fff" fill-rule="nonzero" stroke="#E9EDF0" stroke-width=".546"/><path d="M259.661 7.048c-.27 0-.472-.213-.472-.497s.203-.51.472-.51h4.762c.27 0 .485.227.485.51s-.215.496-.485.496h-4.762zm4.762 1.006c.27 0 .485.227.485.51s-.215.497-.485.497h-4.762c-.27 0-.472-.213-.472-.496s.203-.51.472-.51h4.762zm0 2.014c.27 0 .485.213.485.496 0 .284-.215.51-.485.51h-4.762c-.27 0-.472-.226-.472-.51 0-.283.203-.496.472-.496h4.762z" fill="#BDC0C9"/><path d="M279.052 5.537c.11 0 .199.086.199.193v1.922a.196.196 0 01-.199.193h-1.986a.196.196 0 01-.198-.193V5.73c0-.107.088-.193.198-.193h1.986zm3.336 0c.11 0 .199.086.199.193v1.922a.196.196 0 01-.199.193h-1.986a.196.196 0 01-.198-.193V5.73c0-.107.089-.193.198-.193h1.986zm-3.336 3.23c.11 0 .199.087.199.193v1.922a.196.196 0 01-.199.193h-1.986a.196.196 0 01-.198-.193V8.96c0-.106.088-.193.198-.193h1.986zm3.336 0c.11 0 .199.087.199.193v1.922a.196.196 0 01-.199.193h-1.986a.196.196 0 01-.198-.193V8.96c0-.106.089-.193.198-.193h1.986z" fill="#3B80F4"/><path d="M555.92 0h15.337c.862 0 1.56.699 1.56 1.56v13.491a1.56 1.56 0 01-1.56 1.56H555.92a1.56 1.56 0 01-1.56-1.56V1.561c0-.862.698-1.561 1.56-1.561z" fill="#fff" fill-rule="nonzero"/><path d="M205.096 10.979l2.464-2.796c.057-.065.089-.151.089-.243s-.032-.179-.089-.244l-.181-.205a.279.279 0 00-.429 0l-2.069 2.348-2.071-2.351a.284.284 0 00-.215-.1.284.284 0 00-.214.1l-.181.206a.366.366 0 00-.089.243c0 .092.032.178.089.243l2.466 2.799c.057.065.134.1.215.1a.284.284 0 00.215-.1z" fill="#BDC0C9"/><g transform="translate(312.23 3.692)"><circle cx="5.076" cy="5.076" r="5.076" fill="url(#V)" fill-rule="nonzero"/><path d="M5.174 5.023c-.514 0-.931-.526-.931-1.176 0-.649.137-1.175.931-1.175s.932.526.932 1.175c0 .65-.417 1.176-.932 1.176z" fill="#fff"/><path d="M6.885 6.908c.002-.213.003-.06 0 0zM3.368 6.923c-.004-.033-.002-.229 0 0z" fill="#000"/><path d="M3.417 6.771c.017-1.131.16-1.453 1.247-1.657 0 0 .153.202.51.202s.51-.202.51-.202c1.077.201 1.228.519 1.247 1.62.002.09.003.095.003.085v.119s-.26.542-1.76.542-1.76-.542-1.76-.542a44.692 44.692 0 00.003-.167z" fill="#fff"/></g><path fill="#BDC0C9" stroke="#BDC0C9" stroke-linecap="round" stroke-linejoin="round" stroke-width=".546" d="M533.72 9.002h-2.96v2.996h-.54V9.002h-2.96V8.52h2.96V5.537h.54V8.52h2.96z"/><path d="M563.3 6.493c-.535 0-.97-.421-.97-.939s.435-.94.97-.94c.535 0 .97.422.97.94s-.435.94-.97.94zm0 4.117c.535 0 .97.421.97.94s-.435.939-.97.939c-.535 0-.97-.422-.97-.94s.435-.94.97-.94zm0-2.998c.535 0 .97.422.97.94s-.435.94-.97.94c-.535 0-.97-.422-.97-.94s.435-.94.97-.94z" fill="#FF8FC5"/><rect x=".478" y="26.764" width="66.448" height="60.911" rx="1.56" fill="#1A9ED4" fill-rule="nonzero"/><rect x="75.635" y="26.504" width="66.448" height="60.911" rx="1.56" fill="#2ECC71" fill-rule="nonzero"/><text fill="#FFF" font-family="Lato-Regular, Lato" font-size="6.762" letter-spacing=".061"><tspan x="24.225" y="66.065">Fruits</tspan></text><text fill="#FFF" font-family="Lato-Regular, Lato" font-size="6.762" letter-spacing=".061"><tspan x="93.245" y="65.805">Cosmetics</tspan></text><g fill="#fff"><path d="M115.055 41.549a.354.354 0 00-.276-.137h-5.342a.354.354 0 00-.276.137.46.46 0 00-.097.323l.044.583h6l.044-.583a.46.46 0 00-.097-.323zM109.838 50.801h4.54l.775-7.824h-6.09zM110.17 52.493c0 .506.373.916.834.916h2.207c.461 0 .835-.41.835-.916v-1.17h-3.876v1.17zM109.297 50.28H104.4l-1.97.8-.013.005v.8c0 .843.761 1.525 1.7 1.525h3.8c.938 0 1.699-.682 1.699-1.524v-1.32c0-.158-.143-.286-.319-.286zM106.756 48.715l-1.57 1.043h2.03c.064 0 .124-.05.158-.13a.389.389 0 00.007-.266c-.101-.289-.28-.503-.493-.592l-.132-.055zM107.935 47.87a.225.225 0 00-.008-.201l-.084-.155c-.124-.229-.394-.364-.675-.364a.87.87 0 00-.305.055l-5.118 1.945c-.373.14-.538.509-.369.82l.084.155a.3.3 0 00.176.138.373.373 0 00.24-.006l5.894-2.24a.29.29 0 00.165-.147z"/></g><text fill="#B4E9FF" font-family="Lato-Regular, Lato" font-size="6.762" letter-spacing=".061"><tspan x="28.796" y="77.14">78</tspan></text><text fill="#CAFFE1" font-family="Lato-Regular, Lato" font-size="6.762" letter-spacing=".061"><tspan x="104.426" y="77.4">35</tspan></text><path d="M33.093 43.62c2.952-1.296 5.224.427 5.224 3.366 0 3.044-2.186 7.715-5.538 6.271-3.183 1.396-5.537-3.227-5.537-6.27 0-2.915 2.527-4.59 5.185-3.394.86-2.22 1.59-3.262 1.59-3.262a.362.362 0 01.423-.105l.988.46c.14.064.152.192.03.285 0 0-.818.613-1.235 1.09a11.157 11.157 0 00-1.13 1.558zm-.614-.863s-1.175.1-1.995-.735c-.82-.835-.721-2.032-.721-2.032a.34.34 0 01.296-.302s1.173-.1 1.995.735c.819.835.722 2.031.722 2.031a.34.34 0 01-.297.303z" fill="#fff"/><path d="M225.82 0h16.26c.862 0 1.56.699 1.56 1.56v13.491a1.56 1.56 0 01-1.56 1.56h-16.26a1.56 1.56 0 01-1.56-1.56V1.561c0-.862.698-1.561 1.56-1.561z" fill="#3B80F4" fill-rule="nonzero"/><path d="M237.95 11.076l-1.403-1.403c-.008-.008-.017-.013-.025-.02a2.656 2.656 0 10-.76.76c.008.007.014.016.021.023l1.404 1.404a.54.54 0 00.763-.764zm-3.61-1.232a1.615 1.615 0 110-3.23 1.615 1.615 0 010 3.23z" fill="#fff" fill-rule="nonzero"/><path d="M156.43 0v16.612" stroke="#E9EBED" stroke-linecap="square" stroke-width=".546"/><path d="M169.461 11.442c.12 0 .217.083.217.209 0 .125-.097.207-.218.207h-2.027c-.12 0-.218-.122-.218-.247 0-.126.097-.248.217-.248.05 0 .097-.025.126-.068a.169.169 0 00.02-.147s-.024-.112-.155-.202l-.143-.105a.263.263 0 01-.1-.26l.063-.21a.346.346 0 00.013-.06.427.427 0 00-.165-.407l-.143-.105a.264.264 0 01-.093-.291l.054-.172a.434.434 0 00.007-.233c.002-.001-.272-.882-.272-.882l-1.19.183a.486.486 0 01-.396-.118.53.53 0 01-.179-.387V6.06c0-.148.072-.288.18-.385a.494.494 0 01.4-.117l2.49.388c.494.076.86.523.86 1.044 0 .445-.267.841-.652.993l1.051 3.31c.021.065.081.15.149.15h.104zm-5.03-3.503a.137.137 0 01-.135-.14V6.113c0-.078.06-.14.134-.14.075 0 .134.062.134.14v1.686c0 .078-.06.14-.134.14zm-.538.41a.137.137 0 01-.135-.14v-2.53c0-.077.06-.14.135-.14.074 0 .134.063.134.14v2.53c0 .077-.06.14-.134.14z" fill="#3B80F4" fill-rule="nonzero"/><rect x="312.15" y="35.728" width="37.608" height="6.581" rx="3.291" fill="#08f" fill-rule="nonzero"/><rect x="312.15" y="61.113" width="37.608" height="2.821" rx="1.41" fill="#BDC3C7" fill-rule="nonzero"/><rect x="8.462" y="7.522" width="56.412" height="1.88" rx=".94" fill="#D8DADB" fill-rule="nonzero"/><rect x="173.94" y="7.522" width="13.163" height="1.88" rx=".94" fill="#D8DADB" fill-rule="nonzero"/><rect x="330.01" y="7.522" width="31.027" height="1.88" rx=".94" fill="#D8DADB" fill-rule="nonzero"/><rect x="480.45" y="61.113" width="18.804" height="2.821" rx="1.41" fill="#DADBDB" fill-rule="nonzero"/><rect x="312.15" y="85.559" width="80.858" height="2.821" rx="1.41" fill="#BDC3C7" fill-rule="nonzero"/><rect x="480.45" y="85.559" width="24.445" height="2.821" rx="1.41" fill="#DADBDB" fill-rule="nonzero"/><rect x="312.15" y="109.06" width="54.532" height="2.821" rx="1.41" fill="#BDC3C7" fill-rule="nonzero"/><rect x="480.45" y="109.06" width="22.565" height="2.821" rx="1.41" fill="#DADBDB" fill-rule="nonzero"/><rect x="312.15" y="131.63" width="63.934" height="2.821" rx="1.41" fill="#BDC3C7" fill-rule="nonzero"/><rect x="480.45" y="131.63" width="19.744" height="2.821" rx="1.41" fill="#DADBDB" fill-rule="nonzero"/><rect x="312.15" y="156.07" width="35.728" height="2.821" rx="1.41" fill="#BDC3C7" fill-rule="nonzero"/><rect x="312.15" y="236.93" width="31.967" height="2.821" rx="1.41" fill="#BDC3C7" fill-rule="nonzero"/><rect x="507.71" y="236.93" width="31.967" height="2.821" rx="1.41" fill="#BDC3C7" fill-rule="nonzero"/><rect x="312.15" y="253.86" width="14.103" height="2.821" rx="1.41" fill="#BDC3C7" fill-rule="nonzero"/><rect x="332.83" y="253.86" width="32.907" height="2.821" rx="1.41" fill="#DEE1E4" fill-rule="nonzero"/><rect x="525.58" y="253.86" width="14.103" height="2.821" rx="1.41" fill="#BDC3C7" fill-rule="nonzero"/><rect x="312.15" y="272.66" width="32.907" height="2.821" rx="1.41" fill="#BDC3C7" fill-rule="nonzero"/><rect x="321.55" y="291.46" width="30.087" height="2.821" rx="1.41" fill="#08f" fill-rule="nonzero"/><rect x="372.32" y="291.46" width="15.043" height="2.821" rx="1.41" fill="#08f" fill-rule="nonzero"/><rect x="354.46" y="272.66" width="14.103" height="2.821" rx="1.41" fill="#DEE1E4" fill-rule="nonzero"/><path d="M517.58 272.66h20.685a1.41 1.41 0 010 2.82H517.58a1.41 1.41 0 010-2.82z" fill="#BDC3C7" fill-rule="nonzero"/><rect x="480.45" y="156.07" width="27.266" height="2.821" rx="1.41" fill="#DADBDB" fill-rule="nonzero"/><rect x="312.15" y="315.38" width="43.249" height="8.462" rx="4.231" fill="#fff" fill-rule="nonzero"/><path d="M529.81 315.38h28.206a4.23 4.23 0 010 8.462H529.81a4.23 4.23 0 010-8.462z" fill="#fff" fill-rule="nonzero"/><rect x="435.32" y="35.728" width="22.565" height="6.581" rx="3.291" fill="#08f" fill-rule="nonzero"/><rect x="477.62" y="35.728" width="28.206" height="6.581" rx="3.291" fill="#08f" fill-rule="nonzero"/><circle cx="447.07" cy="62.524" r="4.231" fill="url(#W)"/><circle cx="447.07" cy="86.969" r="4.231" fill="url(#X)"/><circle cx="447.07" cy="110.47" r="4.231" fill="url(#Y)"/><circle cx="447.07" cy="133.04" r="4.231" fill="url(#Z)"/><circle cx="447.07" cy="157.48" r="4.231" fill="url(#aa)"/></g><circle cx="24.041" cy="19.67" r="3.278" fill="#E74C3C"/><circle cx="37.154" cy="19.67" r="3.278" fill="#F5A623"/><circle cx="50.267" cy="19.67" r="3.278" fill="#1ABC9C"/></g><g fill="#EFECF1" fill-rule="nonzero"><path d="M125.949 1.955l-2.024 1.216-1.177-1.96c-.347-.577-1.082-.773-1.64-.438l-9.78 5.877c-.559.336-.73 1.076-.384 1.654l1.178 1.96-2.024 1.216c-1.304.783-1.704 2.51-.895 3.858l14.834 24.687c.81 1.347 2.522 1.805 3.827 1.021l15.85-9.524c1.305-.784 1.705-2.51.895-3.858L129.776 2.977c-.81-1.347-2.523-1.805-3.827-1.022zm-3.994 5.48L120.4 4.85l-.582-.969.857-.515.583.969 1.553 2.585 1.47 2.446-.857.515-1.47-2.446zm-6 3.605L114.4 8.455l-.582-.969 3.429-2.06.582.97 1.553 2.584 1.47 2.446-3.429 2.06-1.47-2.446zm14.683 24.438c.383.636.267 1.407-.257 1.722l-1.53.92c-.524.314-1.26.055-1.642-.582l-1.19-1.982c-.383-.637-.267-1.408.257-1.722l1.53-.92c.524-.315 1.259-.055 1.641.582l1.191 1.982zm-3.09-5.143c.382.636.267 1.407-.257 1.722l-1.53.92c-.524.314-1.26.055-1.642-.582l-1.19-1.982c-.383-.637-.268-1.408.257-1.722l1.53-.92c.523-.315 1.258-.055 1.64.582l1.192 1.982zm-3.09-5.143c.382.636.266 1.407-.258 1.722l-1.53.92c-.524.314-1.259.055-1.64-.582l-1.192-1.982c-.383-.637-.267-1.407.257-1.722l1.53-.92c.524-.314 1.26-.055 1.642.581l1.19 1.983zm11.323 7.196c.383.636.267 1.407-.257 1.722l-1.53.92c-.524.314-1.259.054-1.641-.582l-1.191-1.982c-.383-.637-.267-1.408.257-1.722l1.53-.92c.524-.315 1.259-.055 1.641.581l1.191 1.983zm-3.09-5.143c.383.636.267 1.407-.257 1.722l-1.53.92c-.524.314-1.259.055-1.641-.582l-1.192-1.982c-.382-.637-.266-1.408.258-1.722l1.53-.92c.524-.315 1.259-.055 1.641.582l1.191 1.982zm-3.09-5.143c.382.636.267 1.407-.257 1.722l-1.53.92c-.524.314-1.26.055-1.642-.582l-1.19-1.983c-.383-.636-.268-1.407.256-1.721l1.53-.92c.525-.315 1.26-.055 1.642.581l1.191 1.983zm11.323 7.196c.383.636.267 1.407-.257 1.722l-1.53.92c-.524.314-1.259.054-1.641-.582l-1.191-1.982c-.383-.637-.267-1.408.257-1.723l1.53-.919c.524-.315 1.259-.055 1.641.581l1.191 1.983zm-3.09-5.143c.383.636.267 1.407-.257 1.722l-1.53.92c-.524.314-1.259.055-1.641-.582l-1.192-1.982c-.382-.637-.266-1.408.258-1.723l1.53-.919c.524-.315 1.259-.055 1.641.582l1.191 1.982zm-3.09-5.143c.382.636.267 1.407-.257 1.722l-1.53.92c-.524.314-1.26.055-1.642-.582l-1.19-1.983c-.383-.636-.267-1.407.257-1.721l1.53-.92c.524-.315 1.258-.055 1.64.581l1.192 1.983zm-3.932-6.544a1.99 1.99 0 01-.696 2.726l-10.286 6.18c-.947.569-2.17.27-2.733-.665l-1.052-1.752a1.989 1.989 0 01.695-2.726l10.286-6.18a1.99 1.99 0 012.734.665l1.052 1.752zM36.54 12.978c2.112-1.076 4.689-.253 5.754 1.84l6.336 12.434c1.066 2.092.218 4.66-1.894 5.736L34.89 39.024l3.466 3.331-9.093-.464-15.867 8.084c-2.112 1.076-4.688.253-5.754-1.84L1.308 35.703c-1.066-2.093-.218-4.66 1.894-5.737L36.54 12.978zm-21.964 34c.454-.23.77-.664.85-1.164.27-1.72.328-5.621.327-8.676l.322.32c2.53 2.474 4.774 4.034 6.67 4.636.598.19 1.256.008 1.674-.463a1.56 1.56 0 00.251-1.703c-.041-.088-4.125-8.791-4.183-13.496a1.551 1.551 0 00-1.595-1.529 1.59 1.59 0 00-1.558 1.6c.036 2.959 1.337 7.027 2.528 10.147-1.92-1.643-3.692-3.628-4.486-4.61a1.573 1.573 0 00-1.768-.481 1.585 1.585 0 00-1.043 1.512c.033 1.83.067 5.905-.03 8.998a86.164 86.164 0 01-2.692-3.335c-1.963-2.54-3.71-4.98-3.727-5.004a1.578 1.578 0 00-2.197-.355 1.563 1.563 0 00-.381 2.183c.018.025 1.804 2.522 3.81 5.116 3.745 4.842 5.042 5.905 5.753 6.29.45.244.995.252 1.458.023l.017-.008zm15.89-22.874c-1.186-.877-2.607-1.176-4.108-.867-1.711.354-3.059 1.73-3.605 3.683-.65 2.314-.206 5.806 2.987 8.659 2.188 1.955 3.904 1.645 4.865 1.155.104-.053.198-.108.283-.162 2.436-1.543 2.883-5.979 2.13-8.48-.539-1.793-1.398-3.135-2.552-3.988zm-.47 4.912c.234.782.263 1.96.071 3.002-.196 1.072-.58 1.748-.855 1.92-.167.106-.681-.099-1.347-.695-1.336-1.192-2.682-3.354-2.075-5.516.18-.645.524-1.132.928-1.338a.975.975 0 01.25-.089c1.72-.354 2.595 1.28 3.028 2.716zM40.93 18.772a5.003 5.003 0 00-1.936-.878 5.337 5.337 0 00-2.174.012c-1.71.353-3.057 1.729-3.605 3.682-.649 2.314-.204 5.806 2.987 8.66 2.188 1.955 3.904 1.644 4.865 1.155.104-.053.2-.11.285-.163 2.435-1.542 2.881-5.978 2.128-8.48-.539-1.792-1.397-3.134-2.55-3.988zm-.472 4.913c.236.781.264 1.96.073 3.001-.198 1.073-.582 1.748-.856 1.921-.166.105-.682-.1-1.348-.695-1.335-1.193-2.68-3.355-2.075-5.516.182-.646.525-1.133.928-1.338a.994.994 0 01.251-.09c1.72-.354 2.594 1.281 3.027 2.717zM77.096 117.47c0-.944-.632-1.74-1.492-1.982a.82.82 0 01-.5-.382l-.026-.047a.83.83 0 01-.088-.61 2.056 2.056 0 00-1.383-2.478.82.82 0 01-.479-.377l-.076-.136a.83.83 0 01-.084-.576 2.057 2.057 0 00-1.33-2.36.817.817 0 01-.445-.367l-.043-.076a.788.788 0 01-.07-.625 2.058 2.058 0 00-.111-1.546h8.302l5.553 9.834-7.693 2.965-.04-.072a.815.815 0 01-.069-.617 2.06 2.06 0 00.074-.548zm2.08-13.835c-.456.15-.943.23-1.449.23H64.65c-.911 0-1.65-.743-1.65-1.661v-6.546c0-.918.739-1.662 1.65-1.662h13.079c2.594 0 4.698 2.119 4.698 4.733v.404a4.736 4.736 0 01-3.25 4.502zM90.8 121.487a1.947 1.947 0 01-1.112 2.508l-10.042 3.872c-.227.087-.46.129-.689.129a1.93 1.93 0 01-1.8-1.25l-1.254-3.298a1.953 1.953 0 01.428-2.058c.188-.191.418-.347.684-.45 0 0 10.502-4 10.73-4h.03a1.928 1.928 0 011.772 1.248l1.253 3.299zM61.161 180c1.011 0 1.839.9 1.839 2s-.828 2-1.839 2H45.838c-1.011 0-1.839-.9-1.839-2s.828-2 1.839-2h15.323zm0 7c1.011 0 1.839.9 1.839 2s-.828 2-1.839 2H45.838c-1.011 0-1.839-.9-1.839-2s.828-2 1.839-2h15.323zm0 6c1.011 0 1.839.9 1.839 2s-.828 2-1.839 2H45.838c-1.011 0-1.839-.9-1.839-2s.828-2 1.839-2h15.323z"/></g></g></svg>