<svg width="850" height="689" xmlns="http://www.w3.org/2000/svg" xmlns:xlink="http://www.w3.org/1999/xlink"><defs><filter x="-16.6%" y="-13.7%" width="133.3%" height="154.8%" filterUnits="objectBoundingBox" id="c"><feOffset dy="76" in="SourceAlpha" result="shadowOffsetOuter1"/><feGaussianBlur stdDeviation="26.5" in="shadowOffsetOuter1" result="shadowBlurOuter1"/><feComposite in="shadowBlurOuter1" in2="SourceAlpha" operator="out" result="shadowBlurOuter1"/><feColorMatrix values="0 0 0 0 0 0 0 0 0 0 0 0 0 0 0 0 0 0 0.07 0" in="shadowBlurOuter1"/></filter><filter x="-48.4%" y="-85.2%" width="196.7%" height="330.4%" filterUnits="objectBoundingBox" id="f"><feOffset dy="9" in="SourceAlpha" result="shadowOffsetOuter1"/><feGaussianBlur stdDeviation="10" in="shadowOffsetOuter1" result="shadowBlurOuter1"/><feColorMatrix values="0 0 0 0 0 0 0 0 0 0 0 0 0 0 0 0 0 0 0.09 0" in="shadowBlurOuter1"/></filter><filter x="-30.6%" y="-84.8%" width="161.3%" height="324.3%" filterUnits="objectBoundingBox" id="j"><feOffset dy="5" in="SourceAlpha" result="shadowOffsetOuter1"/><feGaussianBlur stdDeviation="6" in="shadowOffsetOuter1" result="shadowBlurOuter1"/><feColorMatrix values="0 0 0 0 0.776470588 0 0 0 0 0.745098039 0 0 0 0 0.976470588 0 0 0 0.30225317 0" in="shadowBlurOuter1"/></filter><filter x="-23.5%" y="-3.9%" width="146.9%" height="111.5%" filterUnits="objectBoundingBox" id="m"><feOffset dy="8" in="SourceAlpha" result="shadowOffsetOuter1"/><feGaussianBlur stdDeviation="7" in="shadowOffsetOuter1" result="shadowBlurOuter1"/><feComposite in="shadowBlurOuter1" in2="SourceAlpha" operator="out" result="shadowBlurOuter1"/><feColorMatrix values="0 0 0 0 0 0 0 0 0 0 0 0 0 0 0 0 0 0 0.02 0" in="shadowBlurOuter1"/></filter><filter x="-9.8%" y="-7.6%" width="119.6%" height="119.7%" filterUnits="objectBoundingBox" id="o"><feOffset dy="8" in="SourceAlpha" result="shadowOffsetOuter1"/><feGaussianBlur stdDeviation="10.5" in="shadowOffsetOuter1" result="shadowBlurOuter1"/><feColorMatrix values="0 0 0 0 0 0 0 0 0 0 0 0 0 0 0 0 0 0 0.0551403986 0" in="shadowBlurOuter1"/></filter><filter x="-172.7%" y="-127.3%" width="445.5%" height="445.5%" filterUnits="objectBoundingBox" id="r"><feOffset dy="10" in="SourceAlpha" result="shadowOffsetOuter1"/><feGaussianBlur stdDeviation="11" in="shadowOffsetOuter1" result="shadowBlurOuter1"/><feColorMatrix values="0 0 0 0 0.721568627 0 0 0 0 0.674509804 0 0 0 0 0.97254902 0 0 0 0.658061594 0" in="shadowBlurOuter1"/></filter><filter x="-30.2%" y="-48.6%" width="163.8%" height="206.6%" filterUnits="objectBoundingBox" id="t"><feOffset dx="3" dy="5" in="SourceAlpha" result="shadowOffsetOuter1"/><feGaussianBlur stdDeviation="18" in="shadowOffsetOuter1" result="shadowBlurOuter1"/><feColorMatrix values="0 0 0 0 0 0 0 0 0 0 0 0 0 0 0 0 0 0 0.0935235507 0" in="shadowBlurOuter1"/></filter><filter x="-48.4%" y="-85.2%" width="196.7%" height="330.4%" filterUnits="objectBoundingBox" id="w"><feOffset dy="9" in="SourceAlpha" result="shadowOffsetOuter1"/><feGaussianBlur stdDeviation="10" in="shadowOffsetOuter1" result="shadowBlurOuter1"/><feColorMatrix values="0 0 0 0 0 0 0 0 0 0 0 0 0 0 0 0 0 0 0.09 0" in="shadowBlurOuter1"/></filter><path d="M16.536 92.732l59.96-1.692a5.52 5.52 0 015.676 5.518v17.266a5.52 5.52 0 01-5.364 5.518l-59.96 1.692a5.52 5.52 0 01-5.676-5.518V98.25a5.52 5.52 0 015.364-5.518z" id="a"/><path d="M7.534 99.744l60.296-1.69a5.52 5.52 0 015.675 5.518v17.211a5.52 5.52 0 01-5.366 5.518l-60.295 1.69a5.52 5.52 0 01-5.675-5.517v-17.212a5.52 5.52 0 015.365-5.518z" id="g"/><path d="M167 46h60.909a3 3 0 013 3v12.277a3 3 0 01-3 3H167a3 3 0 01-3-3V49a3 3 0 013-3z" id="k"/><path d="M0 98h106.535v433.315H2.76a2.76 2.76 0 01-2.76-2.76V98z" id="n"/><path d="M552 214c6.065 0 11 4.935 11 11s-4.935 11-11 11-11-4.935-11-11 4.935-11 11-11zm0 19.684c4.788 0 8.684-3.896 8.684-8.684 0-4.788-3.896-8.684-8.684-8.684-4.788 0-8.684 3.896-8.684 8.684 0 4.788 3.896 8.684 8.684 8.684zm5.88-9.005c.54 0 .977.444.977.992a.984.984 0 01-.977.991h-4.266c-.33.545-.922.91-1.597.91-1.034 0-1.874-.853-1.874-1.901 0-.685.359-1.287.896-1.621v-5.202c0-.547.438-.99.978-.99s.977.443.977.99v5.202a1.9 1.9 0 01.62.63h4.266z" id="s"/><path d="M6.536 13.68l59.96-1.692a5.52 5.52 0 015.676 5.518v17.266a5.52 5.52 0 01-5.364 5.518l-59.96 1.692a5.52 5.52 0 01-5.676-5.517V19.198a5.52 5.52 0 015.364-5.517z" id="b"/><path d="M19.534 5.693l60.296-1.69a5.52 5.52 0 015.675 5.517v17.211a5.52 5.52 0 01-5.366 5.518l-60.295 1.69a5.52 5.52 0 01-5.675-5.517V11.21a5.52 5.52 0 015.365-5.517z" id="x"/><linearGradient x1="179.778%" y1="-148.797%" x2="-98.776%" y2="217.516%" id="h"><stop stop-color="#C2F1E8" offset="0%"/><stop stop-color="#00BF8D" offset="100%"/></linearGradient><linearGradient x1="0%" y1="100%" x2="152.053%" y2="-56.674%" id="i"><stop stop-color="#F2709C" offset="0%"/><stop stop-color="#FF9472" offset="100%"/></linearGradient><linearGradient x1="-19.616%" y1="100%" x2="160.672%" y2="-113.762%" id="l"><stop stop-color="#B5ABF6" offset="0%"/><stop stop-color="#E6E2FF" offset="100%"/></linearGradient><linearGradient x1="97.863%" y1="103.546%" x2="50%" y2="31.261%" id="q"><stop stop-color="#ADA3F9" offset="0%"/><stop stop-color="#E2CBFF" stop-opacity="0" offset="100%"/></linearGradient><rect id="d" x="0" y="61" width="706.552" height="470.852" rx="5.521"/><rect id="p" x="226" y="129" width="362" height="360" rx="5"/><rect id="u" x="0" y=".277" width="177" height="106" rx="5"/><mask id="e" maskContentUnits="userSpaceOnUse" maskUnits="objectBoundingBox" x="0" y="0" width="71" height="30" fill="#fff"><use xlink:href="#a"/></mask><mask id="v" maskContentUnits="userSpaceOnUse" maskUnits="objectBoundingBox" x="0" y="0" width="71" height="30" fill="#fff"><use xlink:href="#b"/></mask></defs><g transform="translate(53 29)" fill="none" fill-rule="evenodd"><use fill="#000" filter="url(#c)" xlink:href="#d"/><rect stroke-opacity=".071" stroke="#979797" stroke-width=".552" stroke-linejoin="square" fill="#FFF" x=".276" y="61.276" width="706" height="470.3" rx="5.521"/><path d="M2.76 98h701.032a2.76 2.76 0 012.76 2.76v427.795a2.76 2.76 0 01-2.76 2.76H2.76a2.76 2.76 0 01-2.76-2.76V100.76A2.76 2.76 0 012.76 98z" fill="#F5F5F5"/><g opacity=".328" transform="translate(144 129)"><use stroke="#CACACA" mask="url(#e)" stroke-width="1.104" stroke-dasharray="1" transform="rotate(5 46.672 106.037)" xlink:href="#a"/><g transform="rotate(5 37.837 113.023)"><use fill="#000" filter="url(#f)" xlink:href="#g"/><use fill="#FFF" xlink:href="#g"/></g><path d="M23.584 109.192l28.271 2.474a2.208 2.208 0 01-.385 4.4l-28.27-2.474a2.208 2.208 0 01.385-4.4z" fill="#E0E1ED"/><rect stroke-opacity=".13" stroke="#979797" stroke-width=".552" fill="#FFF" x=".276" y="176.276" width="503.448" height="23.448" rx="3"/><rect stroke-opacity=".13" stroke="#979797" stroke-width=".552" fill="#FFF" x=".276" y="260.276" width="503.448" height="23.448" rx="3"/><rect stroke-opacity=".13" stroke="#979797" stroke-width=".552" fill="#FFF" x=".276" y="336" width="503.448" height="23.448" rx="3"/><path d="M7 46h60.909a3 3 0 013 3v12.277a3 3 0 01-3 3H7a3 3 0 01-3-3V49a3 3 0 013-3z" fill="url(#h)" fill-rule="nonzero"/><path d="M87 46h60.909a3 3 0 013 3v12.277a3 3 0 01-3 3H87a3 3 0 01-3-3V49a3 3 0 013-3z" fill="url(#i)" fill-rule="nonzero"/><g fill-rule="nonzero"><use fill="#000" filter="url(#j)" xlink:href="#k"/><use fill="url(#l)" xlink:href="#k"/></g><path d="M247 46h60.909a3 3 0 013 3v12.277a3 3 0 01-3 3H247a3 3 0 01-3-3V49a3 3 0 013-3z" fill="#E0E1ED"/><path d="M328 46h60.909a3 3 0 013 3v12.277a3 3 0 01-3 3H328a3 3 0 01-3-3V49a3 3 0 013-3z" fill="#E0E1ED" opacity=".77"/><path d="M408 46h92.909a3 3 0 013 3v12.277a3 3 0 01-3 3H408a3 3 0 01-3-3V49a3 3 0 013-3z" fill="#E0E1ED" opacity=".684"/><path d="M104 0h14.335a2 2 0 012 2v13.256a2 2 0 01-2 2H104a2 2 0 01-2-2V2a2 2 0 012-2z" fill="#4BBDFF" opacity=".15"/><path d="M128 0h14.335a2 2 0 012 2v13.256a2 2 0 01-2 2H128a2 2 0 01-2-2V2a2 2 0 012-2z" fill="#7101E3" opacity=".15"/><path d="M21.139 185h76.545a3.139 3.139 0 010 6.277H21.139a3.139 3.139 0 110-6.277zM21.139 269h76.545a3.139 3.139 0 010 6.277H21.139a3.139 3.139 0 110-6.277zM21.139 344.724h76.545a3.139 3.139 0 110 6.277H21.139a3.139 3.139 0 010-6.277z" fill="#E0E1ED"/><rect fill="#E0E1ED" y="5" width="84.328" height="8.864" rx="4.432"/><rect fill="#E0E1ED" y="148" width="84.328" height="6.864" rx="3.432"/><rect fill="#E0E1ED" y="232" width="84.328" height="6.864" rx="3.432"/><rect fill="#E0E1ED" y="307.724" width="84.328" height="6.864" rx="3.432"/><rect fill="#E0E1ED" x="93" y="148" width="24.328" height="6.864" rx="3.432"/><rect fill="#E0E1ED" x="93" y="232" width="24.328" height="6.864" rx="3.432"/><rect fill="#E0E1ED" x="93" y="307.724" width="24.328" height="6.864" rx="3.432"/><rect fill="#E0E1ED" x="127" y="148" width="34.328" height="6.864" rx="3.432"/><rect fill="#E0E1ED" x="127" y="232" width="34.328" height="6.864" rx="3.432"/><rect fill="#E0E1ED" x="127" y="307.724" width="34.328" height="6.864" rx="3.432"/></g><use fill="#000" filter="url(#m)" xlink:href="#n"/><path stroke-opacity=".13" stroke="#979797" stroke-width=".552" d="M.276 98.276v430.28a2.484 2.484 0 002.484 2.483h103.499V98.276H.276z" stroke-linejoin="square" fill="#FFF"/><g transform="translate(18 77)" fill-rule="nonzero"><ellipse fill="#E9485E" cx="3.518" cy="3.588" rx="3.518" ry="3.588"/><ellipse fill="#F39C12" cx="16.83" cy="3.588" rx="3.518" ry="3.588"/><ellipse fill="#1ABC9C" cx="29.602" cy="3.588" rx="3.518" ry="3.588"/></g><rect fill="#E8E9F4" x="36" y="141" width="35.328" height="3.864" rx="1.932"/><rect fill="#E8E9F4" x="17" y="115" width="65.328" height="6.864" rx="3.432"/><rect fill="#E8E9F4" x="36" y="164" width="41.952" height="3.864" rx="1.932"/><ellipse fill="#9B59B6" fill-rule="nonzero" cx="22.416" cy="142.417" rx="4.416" ry="4.417"/><ellipse fill="#E74C3C" fill-rule="nonzero" cx="22.416" cy="166.417" rx="4.416" ry="4.417"/><ellipse fill="#2FCC71" fill-rule="nonzero" cx="22.416" cy="189.417" rx="4.416" ry="4.417"/><ellipse fill="#FF8852" fill-rule="nonzero" cx="22.416" cy="212.417" rx="4.416" ry="4.417"/><ellipse fill="#9A59B5" fill-rule="nonzero" cx="22.416" cy="235.417" rx="4.416" ry="4.417"/><ellipse fill="#028AFB" fill-rule="nonzero" cx="22.416" cy="258.417" rx="4.416" ry="4.417"/><ellipse fill="#95A4A6" fill-rule="nonzero" cx="22.416" cy="281.417" rx="4.416" ry="4.417"/><ellipse fill="#16A085" fill-rule="nonzero" cx="22.416" cy="305.417" rx="4.416" ry="4.417"/><ellipse fill="#3294D4" fill-rule="nonzero" cx="22.416" cy="328.417" rx="4.416" ry="4.417"/><rect fill="#E8E9F4" x="36" y="187" width="24.288" height="3.864" rx="1.932"/><rect fill="#E8E9F4" x="36" y="210" width="37.537" height="3.864" rx="1.932"/><rect fill="#E8E9F4" x="36" y="233" width="34.225" height="3.864" rx="1.932"/><rect fill="#E8E9F4" x="36" y="256" width="40.848" height="3.864" rx="1.932"/><rect fill="#E8E9F4" x="36" y="280" width="34.225" height="3.864" rx="1.932"/><rect fill="#E8E9F4" x="36" y="303" width="46.367" height="3.864" rx="1.932"/><rect fill="#E8E9F4" x="36" y="326" width="39.745" height="3.864" rx="1.932"/><use fill="#000" filter="url(#o)" xlink:href="#p"/><use fill="#FFF" xlink:href="#p"/><circle fill="#F5A623" opacity=".291" cx="480" cy="227" r="11"/><circle fill="#50E3C2" opacity=".227" cx="516" cy="227" r="11"/><path d="M739.19 228.989c.048.134-65.682-42.516-197.19-127.95L731.745 46l27.25 175.025c-13.204-9.728-19.805-7.073-19.805 7.964z" fill="url(#q)" transform="matrix(-1 0 0 1 1300.995 0)"/><use fill="#000" filter="url(#r)" xlink:href="#s"/><use fill="#B3AAF5" xlink:href="#s"/><rect stroke-opacity=".296" stroke="#979797" stroke-width=".552" fill="#FFF" x="261.276" y="336.276" width="296.448" height="23.448" rx="3"/><g transform="rotate(-14 455.871 -2271.223)"><use fill="#000" filter="url(#t)" xlink:href="#u"/><use fill="#FFF" xlink:href="#u"/></g><text font-family="Lato-Regular, Lato" font-size="11.04" letter-spacing=".1" fill="#000" transform="rotate(-14 455.871 -2271.223)"><tspan x="69.214" y="66.775">Custom Time</tspan></text><text font-family="Lato-Regular, Lato" font-size="11.04" letter-spacing=".1" fill="#000" transform="rotate(-14 455.871 -2271.223)"><tspan x="69.214" y="35.775">Start Time</tspan></text><path d="M616.483 86.968c5.35-1.334 10.788 1.933 12.122 7.283 1.334 5.35-1.933 10.789-7.284 12.123-5.35 1.334-10.788-1.934-12.122-7.284-1.334-5.35 1.934-10.788 7.284-12.122zm4.329 17.363c4.224-1.053 6.803-5.346 5.75-9.57s-5.346-6.804-9.57-5.75c-4.224 1.053-6.803 5.346-5.75 9.57 1.053 4.223 5.346 6.803 9.57 5.75zm3.206-9.236a.895.895 0 011.08.66.895.895 0 01-.644 1.089l-3.762.938a1.699 1.699 0 01-1.21 1.153c-.911.227-1.84-.34-2.07-1.264a1.734 1.734 0 01.434-1.627l-1.144-4.588a.895.895 0 01.644-1.09.895.895 0 011.08.66l1.144 4.588c.257.083.493.227.686.419l3.762-.938z" fill="#7101E3" opacity=".15"/><path d="M600.493 60.036l4.164 16.703 12.135-9.703a2 2 0 00-.81-3.513l-15.49-3.487z" fill="#4BBDFF" opacity=".15"/><rect stroke-opacity=".296" stroke="#979797" stroke-width=".552" fill="#FFF" x="261.276" y="426.276" width="296.448" height="23.448" rx="3"/><text opacity=".342" font-family="Lato-Regular, Lato" font-size="8.04" letter-spacing=".073" fill="#979797"><tspan x="271" y="348">Add a subtask</tspan></text><text opacity=".342" font-family="Lato-Regular, Lato" font-size="8.04" letter-spacing=".073" fill="#979797"><tspan x="271" y="438">Add a comment</tspan></text><text font-family="Lato-Regular, Lato" font-size="11.04" letter-spacing=".1" fill="#000"><tspan x="261" y="318">Subtasks</tspan></text><text font-family="Lato-Regular, Lato" font-size="11.04" letter-spacing=".1" fill="#000"><tspan x="261" y="408">Discussion</tspan></text><g transform="translate(258 158)"><use stroke="#CACACA" mask="url(#v)" stroke-width="1.104" stroke-dasharray="1" transform="rotate(5 36.672 26.985)" xlink:href="#b"/><g transform="rotate(5 49.837 18.971)"><use fill="#000" filter="url(#w)" xlink:href="#x"/><use fill="#FFF" xlink:href="#x"/></g></g><path d="M264 217h133a3 3 0 010 6H264a3 3 0 010-6z" fill="#E0E1ED"/><text transform="rotate(4 308 178)" font-family="Lato-Regular, Lato" font-size="11.04" letter-spacing=".1" fill="#CCCDCD"><tspan x="284" y="181">Complete</tspan></text><path d="M264 275h273a3 3 0 010 6H264a3 3 0 010-6zM263 229h73a2 2 0 010 4h-73a2 2 0 010-4zM263 287h223a2 2 0 010 4H263a2 2 0 010-4z" fill="#E0E1ED"/><circle fill="#008AFF" opacity=".419" cx="269" cy="254" r="8"/><circle fill="#50E3C2" cx="294" cy="254" r="8"/><circle fill="#FE408E" opacity=".419" cx="319" cy="254" r="8"/></g></svg>